<svg width="64" height="64" viewBox="0 0 64 64" fill="none" xmlns="http://www.w3.org/2000/svg">
<path d="M32 1.27979C15.0618 1.27979 1.28 15.0615 1.28 31.9998C1.28 41.0763 5.24032 49.2439 11.52 54.8721V54.8939L11.9654 55.2779C12.0435 55.3457 12.1293 55.402 12.2086 55.4686C13.4892 56.5484 14.8542 57.5239 16.2906 58.3857C16.3994 58.451 16.5107 58.5124 16.6195 58.5751C17.3325 58.9899 18.0608 59.3803 18.8083 59.7374L18.8314 59.7476C20.444 60.5143 22.1208 61.1379 23.8426 61.6113L23.9386 61.6382C24.759 61.8622 25.5936 62.0503 26.4397 62.2052L26.6765 62.2475C27.4989 62.3927 28.3269 62.5046 29.1584 62.5828C29.2544 62.5918 29.3504 62.5969 29.4451 62.6046C30.2886 62.675 31.1386 62.7198 32 62.7198C32.8614 62.7198 33.7114 62.675 34.5549 62.6046C34.6509 62.5969 34.7469 62.5918 34.8416 62.5828C35.68 62.506 36.5069 62.3908 37.3235 62.2475L37.5603 62.2052C38.4017 62.0519 39.2362 61.8627 40.0614 61.6382L40.1574 61.6113C41.8792 61.1379 43.556 60.5143 45.1686 59.7476L45.1917 59.7374C45.9365 59.3792 46.6666 58.9915 47.3805 58.5751C47.4906 58.5111 47.6006 58.451 47.7094 58.3857C48.3589 57.9962 48.9938 57.5829 49.6128 57.1467C49.7715 57.0353 49.9302 56.9239 50.0877 56.8087C50.6714 56.3812 51.2397 55.9345 51.7914 55.4686C51.8707 55.402 51.9565 55.3457 52.0346 55.2779L52.48 54.8939V54.8721C58.7597 49.2427 62.72 41.0763 62.72 31.9998C62.72 15.0615 48.9382 1.27979 32 1.27979ZM32 31.9998C26.3539 31.9998 21.76 27.4059 21.76 21.7598C21.76 16.1137 26.3539 11.5198 32 11.5198C37.6461 11.5198 42.24 16.1137 42.24 21.7598C42.24 27.4059 37.6461 31.9998 32 31.9998ZM35.84 34.5598C43.6032 34.5598 49.92 40.8766 49.92 48.6398V53.706C49.8662 53.7508 49.8099 53.7918 49.7562 53.8366C49.2506 54.2475 48.7322 54.6379 48.2022 55.0116C48.0845 55.0948 47.9693 55.1806 47.8515 55.2612C47.2794 55.6516 46.6918 56.0177 46.0941 56.3646L45.7651 56.554C43.0319 58.094 40.0586 59.162 36.9702 59.7131L36.7514 59.7527C36.0236 59.8771 35.2913 59.9732 34.5562 60.0407C34.455 60.0497 34.3526 60.0561 34.2502 60.0638C33.504 60.1214 32.7539 60.1598 32 60.1598C31.2461 60.1598 30.496 60.1214 29.7498 60.0612L29.4438 60.0382C28.6348 59.9642 27.8293 59.8548 27.0298 59.7105C24.7282 59.2963 22.4872 58.5971 20.3584 57.6292L20.1523 57.5358C19.3861 57.1788 18.6366 56.7871 17.9059 56.362C17.3082 56.0164 16.7206 55.6491 16.1485 55.2587C16.0294 55.178 15.9142 55.0923 15.7978 55.0091C15.2663 54.6356 14.748 54.2436 14.2438 53.834C14.1901 53.7905 14.1338 53.7483 14.08 53.7035V48.6398C14.08 40.8766 20.3968 34.5598 28.16 34.5598H35.84ZM52.48 51.2971V48.6398C52.48 40.6129 46.7661 33.8955 39.1936 32.339C40.92 31.1665 42.3334 29.5896 43.3106 27.7456C44.2878 25.9017 44.7991 23.8467 44.8 21.7598C44.8 14.7019 39.0579 8.95978 32 8.95978C24.9421 8.95978 19.2 14.7019 19.2 21.7598C19.2009 23.8467 19.7122 25.9017 20.6894 27.7456C21.6666 29.5896 23.08 31.1665 24.8064 32.339C17.2339 33.8955 11.52 40.6129 11.52 48.6398V51.2971C6.76352 46.2526 3.84 39.4635 3.84 31.9998C3.84 16.4721 16.4723 3.83979 32 3.83979C47.5277 3.83979 60.16 16.4721 60.16 31.9998C60.16 39.4635 57.2365 46.2526 52.48 51.2971Z" fill="black"/>
</svg>
