<svg width="25" height="27" viewBox="0 0 25 27" fill="none" xmlns="http://www.w3.org/2000/svg">
<path d="M24.3536 23.3536C24.5488 23.1583 24.5488 22.8417 24.3536 22.6464L21.1716 19.4645C20.9763 19.2692 20.6597 19.2692 20.4645 19.4645C20.2692 19.6597 20.2692 19.9763 20.4645 20.1716L23.2929 23L20.4645 25.8284C20.2692 26.0237 20.2692 26.3403 20.4645 26.5355C20.6597 26.7308 20.9763 26.7308 21.1716 26.5355L24.3536 23.3536ZM0.5 0V10H1.5V0H0.5ZM14 23.5H24V22.5H14V23.5ZM0.5 10C0.5 17.4558 6.54416 23.5 14 23.5V22.5C7.09644 22.5 1.5 16.9036 1.5 10H0.5Z" fill="black"/>
</svg>
