<svg width="54" height="54" viewBox="0 0 54 54" fill="none" xmlns="http://www.w3.org/2000/svg">
<path opacity="0.6" d="M24.374 2.09661C25.2761 -0.341119 28.7239 -0.341116 29.626 2.09661L35.1961 17.1496C35.4797 17.916 36.084 18.5203 36.8504 18.8039L51.9034 24.374C54.3411 25.2761 54.3411 28.7239 51.9034 29.626L36.8504 35.1961C36.084 35.4797 35.4797 36.084 35.1961 36.8504L29.626 51.9034C28.7239 54.3411 25.2761 54.3411 24.374 51.9034L18.8039 36.8504C18.5203 36.084 17.916 35.4797 17.1496 35.1961L2.09661 29.626C-0.341118 28.7239 -0.341116 25.2761 2.09661 24.374L17.1496 18.8039C17.916 18.5203 18.5203 17.916 18.8039 17.1496L24.374 2.09661Z" fill="black"/>
</svg>
