<svg width="41" height="41" viewBox="0 0 41 41" fill="none" xmlns="http://www.w3.org/2000/svg">
<path fill-rule="evenodd" clip-rule="evenodd" d="M20.1014 40.8232C31.1472 40.8232 40.1014 31.8689 40.1014 20.8232C40.1014 9.77754 31.1472 0.823242 20.1014 0.823242C9.05573 0.823242 0.10144 9.77754 0.10144 20.8232C0.10144 31.8689 9.05573 40.8232 20.1014 40.8232ZM23.1884 16.2758C24.8932 14.5709 24.8932 11.8068 23.1884 10.1019C21.4835 8.39702 18.7194 8.39702 17.0145 10.1019C15.3097 11.8068 15.3097 14.5709 17.0145 16.2758L20.1014 19.3627L23.1884 16.2758ZM24.6489 23.9102C26.3538 25.6151 29.1179 25.6151 30.8228 23.9102C32.5276 22.2053 32.5276 19.4412 30.8228 17.7363C29.1179 16.0315 26.3538 16.0315 24.6489 17.7363L21.562 20.8233L24.6489 23.9102ZM23.1884 31.5446C24.8932 29.8397 24.8932 27.0756 23.1884 25.3707L20.1014 22.2838L17.0145 25.3707C15.3097 27.0756 15.3097 29.8397 17.0145 31.5446C18.7194 33.2495 21.4835 33.2495 23.1884 31.5446ZM9.38007 23.9102C7.67523 22.2053 7.67523 19.4412 9.38007 17.7363C11.085 16.0315 13.8491 16.0315 15.554 17.7363L18.6409 20.8233L15.554 23.9102C13.8491 25.6151 11.085 25.6151 9.38007 23.9102Z" fill="#7F57F1"/>
</svg>
