<svg width="41" height="41" viewBox="0 0 41 41" fill="none" xmlns="http://www.w3.org/2000/svg">
<path fill-rule="evenodd" clip-rule="evenodd" d="M20.6841 40.6379C31.7298 40.6379 40.6841 31.6836 40.6841 20.6379C40.6841 9.59225 31.7298 0.637939 20.6841 0.637939C9.63837 0.637939 0.684082 9.59225 0.684082 20.6379C0.684082 31.6836 9.63837 40.6379 20.6841 40.6379ZM26.9234 9.95478C27.2271 8.87599 26.1802 8.23807 25.2241 8.91924L11.8772 18.4275C10.8403 19.1662 11.0034 20.6379 12.1222 20.6379H15.6368V20.6107H22.4866L16.9053 22.58L14.4448 31.3211C14.1411 32.3999 15.1879 33.0378 16.1441 32.3566L29.491 22.8484C30.5279 22.1097 30.3647 20.6379 29.246 20.6379H23.9162L26.9234 9.95478Z" fill="#F15757"/>
</svg>
