<svg width="41" height="40" viewBox="0 0 41 40" fill="none" xmlns="http://www.w3.org/2000/svg">
<path d="M37.1658 28.2001V33.2001C37.1677 33.6643 37.0726 34.1238 36.8866 34.5491C36.7007 34.9743 36.4279 35.3561 36.0859 35.6699C35.7439 35.9837 35.3401 36.2226 34.9004 36.3713C34.4607 36.52 33.9947 36.5753 33.5324 36.5335C28.4038 35.9762 23.4774 34.2237 19.1491 31.4168C15.1222 28.8579 11.708 25.4438 9.14912 21.4168C6.33241 17.0688 4.57952 12.1185 4.03245 6.96681C3.9908 6.50592 4.04557 6.04141 4.19328 5.60285C4.34099 5.16429 4.5784 4.76129 4.89039 4.41951C5.20238 4.07773 5.58212 3.80466 6.00543 3.61768C6.42874 3.4307 6.88635 3.33391 7.34912 3.33347H12.3491C13.158 3.32551 13.9421 3.61194 14.5554 4.13936C15.1687 4.66679 15.5692 5.39922 15.6824 6.20014C15.8935 7.80025 16.2849 9.37135 16.8491 10.8835C17.0734 11.48 17.1219 12.1283 16.989 12.7516C16.856 13.3749 16.5472 13.947 16.0991 14.4001L13.9824 16.5168C16.355 20.6894 19.8099 24.1442 23.9824 26.5168L26.0991 24.4001C26.5523 23.952 27.1244 23.6432 27.7476 23.5103C28.3709 23.3774 29.0192 23.4259 29.6158 23.6501C31.1279 24.2144 32.699 24.6058 34.2991 24.8168C35.1087 24.931 35.8481 25.3388 36.3767 25.9626C36.9052 26.5864 37.1861 27.3828 37.1658 28.2001Z" stroke="#4F4328" stroke-width="3" stroke-linecap="round" stroke-linejoin="round"/>
</svg>
