<svg width="84" height="84" viewBox="0 0 84 84" fill="none" xmlns="http://www.w3.org/2000/svg">
<path d="M64.4801 70.2H18.7201C15.6001 70.2 13.0001 67.6 13.0001 64.48V22.49C13.0001 19.37 15.0801 16.77 17.8101 16.77H20.6701V20.54H17.8101C17.4201 20.54 16.9001 21.32 16.9001 22.49V64.48C16.9001 65.52 17.8101 66.43 18.8501 66.43H64.6101C65.6501 66.43 66.5601 65.52 66.5601 64.48V22.49C66.5601 21.32 65.9101 20.54 65.6501 20.54H62.7901V16.77H65.6501C68.2501 16.77 70.4601 19.37 70.4601 22.49V64.48C70.2001 67.6 67.6001 70.2 64.4801 70.2Z" fill="black"/>
<path d="M26.3901 24.4401C25.3501 24.4401 24.4401 23.5301 24.4401 22.4901V14.8201C24.4401 13.7801 25.3501 12.8701 26.3901 12.8701C27.4301 12.8701 28.3401 13.7801 28.3401 14.8201V22.4901C28.2101 23.5301 27.4301 24.4401 26.3901 24.4401ZM56.8101 24.4401C55.7701 24.4401 54.8601 23.5301 54.8601 22.4901V14.8201C54.8601 13.7801 55.7701 12.8701 56.8101 12.8701C57.8501 12.8701 58.7601 13.7801 58.7601 14.8201V22.4901C58.7601 23.5301 57.8501 24.4401 56.8101 24.4401ZM32.1101 16.7701H51.0901V20.6701H32.1101V16.7701ZM16.7701 28.2101H66.4301V32.1101H16.7701V28.2101ZM58.7601 35.8801H62.5301V39.6501H58.7601V35.8801ZM51.0901 35.8801H54.9901V39.6501H51.0901V35.8801ZM43.5501 35.8801H47.3201V39.6501H43.5501V35.8801ZM35.8801 35.8801H39.6501V39.6501H35.8801V35.8801ZM28.2101 35.8801H32.1101V39.6501H28.2101V35.8801ZM58.7601 43.5501H62.5301V47.3201H58.7601V43.5501ZM51.0901 43.5501H54.9901V47.3201H51.0901V43.5501ZM43.5501 43.5501H47.3201V47.3201H43.5501V43.5501ZM35.8801 43.5501H39.6501V47.3201H35.8801V43.5501ZM28.2101 43.5501H32.1101V47.3201H28.2101V43.5501ZM20.6701 43.5501H24.4401V47.3201H20.6701V43.5501ZM58.7601 51.0901H62.5301V54.9901H58.7601V51.0901ZM51.0901 51.0901H54.9901V54.9901H51.0901V51.0901ZM43.5501 51.0901H47.3201V54.9901H43.5501V51.0901ZM35.8801 51.0901H39.6501V54.9901H35.8801V51.0901ZM28.2101 51.0901H32.1101V54.9901H28.2101V51.0901ZM20.6701 51.0901H24.4401V54.9901H20.6701V51.0901ZM51.0901 58.7601H54.9901V62.5301H51.0901V58.7601ZM43.5501 58.7601H47.3201V62.5301H43.5501V58.7601ZM35.8801 58.7601H39.6501V62.5301H35.8801V58.7601ZM28.2101 58.7601H32.1101V62.5301H28.2101V58.7601ZM20.6701 58.7601H24.4401V62.5301H20.6701V58.7601Z" fill="black"/>
</svg>
