<svg width="58" height="45" viewBox="0 0 58 45" fill="none" xmlns="http://www.w3.org/2000/svg">
<path d="M57.1998 6.15988L54.9198 3.87988L33.7998 24.9999C31.1598 27.6399 26.7198 27.6399 24.0798 24.9999L2.95984 3.99988L0.67984 6.27988L16.3998 21.9999L0.67984 37.7199L2.95984 39.9999L18.6798 24.2799L21.7998 27.3999C23.7198 29.3199 26.2398 30.3999 28.8798 30.3999C31.5198 30.3999 34.0398 29.3199 35.9598 27.3999L39.0798 24.2799L54.7998 39.9999L57.0798 37.7199L41.3598 21.9999L57.1998 6.15988Z" fill="black"/>
<path d="M52.7598 44.0797H5.35984C2.59984 44.0797 0.319839 41.7997 0.319839 39.0397V5.19967C0.319839 2.43967 2.59984 0.159668 5.35984 0.159668H52.7598C55.5198 0.159668 57.7998 2.43967 57.7998 5.19967V39.0397C57.7998 41.7997 55.5198 44.0797 52.7598 44.0797ZM5.23984 3.39967C4.27984 3.39967 3.55984 4.11967 3.55984 5.07967V38.9197C3.55984 39.8797 4.27984 40.5997 5.23984 40.5997H52.6398C53.5998 40.5997 54.3198 39.8797 54.3198 38.9197V5.07967C54.3198 4.11967 53.5998 3.39967 52.6398 3.39967H5.23984Z" fill="black"/>
</svg>
