<svg width="25" height="24" viewBox="0 0 25 24" fill="none" xmlns="http://www.w3.org/2000/svg">
<path d="M11.0752 2.94625C11.8586 2.15104 13.1414 2.15104 13.9248 2.94625L14.9681 4.00535C15.3477 4.39062 15.867 4.60576 16.4078 4.60171L17.8945 4.59058C19.0108 4.58222 19.9178 5.48924 19.9094 6.60549L19.8983 8.09215C19.8942 8.63295 20.1094 9.15234 20.4947 9.53188L21.5537 10.5752C22.349 11.3586 22.349 12.6414 21.5537 13.4248L20.4947 14.4681C20.1094 14.8477 19.8942 15.367 19.8983 15.9078L19.9094 17.3945C19.9178 18.5108 19.0108 19.4178 17.8945 19.4094L16.4078 19.3983C15.867 19.3942 15.3477 19.6094 14.9681 19.9947L13.9248 21.0537C13.1414 21.849 11.8586 21.849 11.0752 21.0537L10.0319 19.9947C9.65234 19.6094 9.13295 19.3942 8.59215 19.3983L7.10549 19.4094C5.98924 19.4178 5.08222 18.5108 5.09058 17.3945L5.10171 15.9078C5.10576 15.367 4.89062 14.8477 4.50535 14.4681L3.44625 13.4248C2.65104 12.6414 2.65104 11.3586 3.44625 10.5752L4.50535 9.53188C4.89062 9.15234 5.10576 8.63295 5.10171 8.09215L5.09058 6.60549C5.08222 5.48924 5.98924 4.58222 7.10549 4.59058L8.59215 4.60171C9.13295 4.60576 9.65234 4.39062 10.0319 4.00535L11.0752 2.94625Z" stroke="white" stroke-width="2"/>
<path d="M16.5 10L12.125 14L9.5 12.1176" stroke="white" stroke-width="2" stroke-linecap="round" stroke-linejoin="round"/>
</svg>
