<svg width="41" height="41" viewBox="0 0 41 41" fill="none" xmlns="http://www.w3.org/2000/svg">
<path fill-rule="evenodd" clip-rule="evenodd" d="M20.1015 40.8232C31.1473 40.8232 40.1015 31.8689 40.1015 20.8232C40.1015 9.77754 31.1473 0.823242 20.1015 0.823242C9.05585 0.823242 0.101562 9.77754 0.101562 20.8232C0.101562 31.8689 9.05585 40.8232 20.1015 40.8232ZM23.1885 16.2758C24.8933 14.5709 24.8933 11.8068 23.1885 10.1019C21.4836 8.39702 18.7195 8.39702 17.0146 10.1019C15.3098 11.8068 15.3098 14.5709 17.0146 16.2758L20.1015 19.3627L23.1885 16.2758ZM24.649 23.9102C26.3539 25.6151 29.118 25.6151 30.8229 23.9102C32.5277 22.2053 32.5277 19.4412 30.8229 17.7363C29.118 16.0315 26.3539 16.0315 24.649 17.7363L21.5621 20.8233L24.649 23.9102ZM23.1885 31.5446C24.8933 29.8397 24.8933 27.0756 23.1885 25.3707L20.1015 22.2838L17.0146 25.3707C15.3098 27.0756 15.3098 29.8397 17.0146 31.5446C18.7195 33.2495 21.4836 33.2495 23.1885 31.5446ZM9.38019 23.9102C7.67535 22.2053 7.67535 19.4412 9.38019 17.7363C11.0851 16.0315 13.8492 16.0315 15.5541 17.7363L18.641 20.8233L15.5541 23.9102C13.8492 25.6151 11.0851 25.6151 9.38019 23.9102Z" fill="#7F57F1"/>
</svg>
