<svg width="41" height="41" viewBox="0 0 41 41" fill="none" xmlns="http://www.w3.org/2000/svg">
<path fill-rule="evenodd" clip-rule="evenodd" d="M20.6841 40.6382C31.7298 40.6382 40.6841 31.6839 40.6841 20.6382C40.6841 9.59249 31.7298 0.638184 20.6841 0.638184C9.63837 0.638184 0.684082 9.59249 0.684082 20.6382C0.684082 31.6839 9.63837 40.6382 20.6841 40.6382ZM26.9234 9.95502C27.2271 8.87623 26.1802 8.23831 25.2241 8.91948L11.8772 18.4278C10.8403 19.1665 11.0034 20.6382 12.1222 20.6382H15.6368V20.611H22.4866L16.9053 22.5803L14.4448 31.3214C14.1411 32.4002 15.1879 33.0381 16.1441 32.3569L29.491 22.8487C30.5279 22.11 30.3647 20.6382 29.246 20.6382H23.9162L26.9234 9.95502Z" fill="#F15757"/>
</svg>
