<svg width="64" height="64" viewBox="0 0 64 64" fill="none" xmlns="http://www.w3.org/2000/svg">
<path d="M62.6667 0H1.33333C0.979711 0 0.640573 0.140476 0.390524 0.390524C0.140476 0.640573 0 0.979711 0 1.33333L0 62.6667C0 63.0203 0.140476 63.3594 0.390524 63.6095C0.640573 63.8595 0.979711 64 1.33333 64H62.6667C63.0203 64 63.3594 63.8595 63.6095 63.6095C63.8595 63.3594 64 63.0203 64 62.6667V1.33333C64 0.979711 63.8595 0.640573 63.6095 0.390524C63.3594 0.140476 63.0203 0 62.6667 0ZM2.66667 2.66667H61.3333V10.6667H2.66667V2.66667ZM61.3333 61.3333H2.66667V13.3333H61.3333V61.3333Z" fill="black"/>
<path d="M6.66665 5.3335C6.31302 5.3335 5.97389 5.47397 5.72384 5.72402C5.47379 5.97407 5.33331 6.31321 5.33331 6.66683C5.33331 7.02045 5.47379 7.35959 5.72384 7.60964C5.97389 7.85969 6.31302 8.00016 6.66665 8.00016C7.02027 8.00016 7.35941 7.85969 7.60946 7.60964C7.8595 7.35959 7.99998 7.02045 7.99998 6.66683C7.99998 6.31321 7.8595 5.97407 7.60946 5.72402C7.35941 5.47397 7.02027 5.3335 6.66665 5.3335ZM12 5.3335C11.6464 5.3335 11.3072 5.47397 11.0572 5.72402C10.8071 5.97407 10.6666 6.31321 10.6666 6.66683C10.6666 7.02045 10.8071 7.35959 11.0572 7.60964C11.3072 7.85969 11.6464 8.00016 12 8.00016C12.3536 8.00016 12.6927 7.85969 12.9428 7.60964C13.1928 7.35959 13.3333 7.02045 13.3333 6.66683C13.3333 6.31321 13.1928 5.97407 12.9428 5.72402C12.6927 5.47397 12.3536 5.3335 12 5.3335ZM17.3333 5.3335C16.9797 5.3335 16.6406 5.47397 16.3905 5.72402C16.1405 5.97407 16 6.31321 16 6.66683C16 7.02045 16.1405 7.35959 16.3905 7.60964C16.6406 7.85969 16.9797 8.00016 17.3333 8.00016C17.6869 8.00016 18.0261 7.85969 18.2761 7.60964C18.5262 7.35959 18.6666 7.02045 18.6666 6.66683C18.6666 6.31321 18.5262 5.97407 18.2761 5.72402C18.0261 5.47397 17.6869 5.3335 17.3333 5.3335ZM11.6533 28.8935C12.3866 28.0802 16 23.9202 16 21.3335C16 19.919 15.4381 18.5625 14.4379 17.5623C13.4377 16.5621 12.0811 16.0002 10.6666 16.0002C9.25216 16.0002 7.8956 16.5621 6.89541 17.5623C5.89522 18.5625 5.33331 19.919 5.33331 21.3335C5.33331 23.9202 8.94665 28.0802 9.67998 28.8935C9.80495 29.031 9.95727 29.1408 10.1272 29.216C10.2971 29.2912 10.4808 29.33 10.6666 29.33C10.8524 29.33 11.0362 29.2912 11.2061 29.216C11.376 29.1408 11.5283 29.031 11.6533 28.8935ZM10.6666 18.6668C11.3739 18.6668 12.0522 18.9478 12.5523 19.4479C13.0524 19.948 13.3333 20.6263 13.3333 21.3335C13.3333 22.1868 12.08 24.1735 10.6666 25.9335C9.25331 24.1602 7.99998 22.1602 7.99998 21.3335C7.99998 20.6263 8.28093 19.948 8.78103 19.4479C9.28113 18.9478 9.9594 18.6668 10.6666 18.6668ZM49.3333 34.6668H18.6666C16.1913 34.6668 13.8173 35.6502 12.067 37.4005C10.3166 39.1508 9.33331 41.5248 9.33331 44.0002C9.33331 46.4755 10.3166 48.8495 12.067 50.5998C13.8173 52.3502 16.1913 53.3335 18.6666 53.3335H40C40.3536 53.3335 40.6927 53.193 40.9428 52.943C41.1928 52.6929 41.3333 52.3538 41.3333 52.0002C41.3333 51.6465 41.1928 51.3074 40.9428 51.0574C40.6927 50.8073 40.3536 50.6668 40 50.6668H18.6666C16.8985 50.6668 15.2028 49.9645 13.9526 48.7142C12.7024 47.464 12 45.7683 12 44.0002C12 42.2321 12.7024 40.5364 13.9526 39.2861C15.2028 38.0359 16.8985 37.3335 18.6666 37.3335H49.3333C51.455 37.3335 53.4899 36.4906 54.9902 34.9904C56.4905 33.4901 57.3333 31.4552 57.3333 29.3335C57.3333 27.2118 56.4905 25.1769 54.9902 23.6766C53.4899 22.1763 51.455 21.3335 49.3333 21.3335C20.08 21.3335 23 21.5468 23.6133 20.9468C23.7376 20.8225 23.8362 20.6749 23.9035 20.5125C23.9708 20.3501 24.0054 20.176 24.0054 20.0002C24.0054 19.8244 23.9708 19.6503 23.9035 19.4878C23.8362 19.3254 23.7376 19.1778 23.6133 19.0535C23.489 18.9292 23.3414 18.8306 23.179 18.7633C23.0166 18.696 22.8425 18.6614 22.6666 18.6614C22.4908 18.6614 22.3167 18.696 22.1543 18.7633C21.9919 18.8306 21.8443 18.9292 21.72 19.0535C18.76 22.0268 18.9466 21.7868 18.8 22.1202C18.6857 22.3654 18.6488 22.6396 18.694 22.9063C18.7393 23.173 18.8646 23.4197 19.0533 23.6135C21.96 26.5202 21.9466 26.6668 22.6666 26.6668C22.9315 26.6684 23.1908 26.591 23.4115 26.4446C23.6322 26.2982 23.8043 26.0894 23.9058 25.8448C24.0074 25.6002 24.0338 25.3309 23.9817 25.0713C23.9296 24.8116 23.8014 24.5733 23.6133 24.3868C23 23.7868 20.0666 24.0002 49.3333 24.0002C50.7478 24.0002 52.1044 24.5621 53.1045 25.5623C54.1047 26.5625 54.6666 27.919 54.6666 29.3335C54.6666 30.748 54.1047 32.1045 53.1045 33.1047C52.1044 34.1049 50.7478 34.6668 49.3333 34.6668Z" fill="black"/>
<path d="M56 45.3335H45.3333C44.9797 45.3335 44.6406 45.474 44.3905 45.724C44.1405 45.9741 44 46.3132 44 46.6668V57.3335C44 57.6871 44.1405 58.0263 44.3905 58.2763C44.6406 58.5264 44.9797 58.6668 45.3333 58.6668H56C56.3536 58.6668 56.6928 58.5264 56.9428 58.2763C57.1929 58.0263 57.3333 57.6871 57.3333 57.3335V46.6668C57.3333 46.3132 57.1929 45.9741 56.9428 45.724C56.6928 45.474 56.3536 45.3335 56 45.3335ZM54.6667 56.0002H46.6667V48.0002H49.3333V49.3335C49.3333 49.6871 49.4738 50.0263 49.7239 50.2763C49.9739 50.5264 50.313 50.6668 50.6667 50.6668C51.0203 50.6668 51.3594 50.5264 51.6095 50.2763C51.8595 50.0263 52 49.6871 52 49.3335V48.0002H54.6667V56.0002Z" fill="black"/>
</svg>
