<svg width="161" height="44" viewBox="0 0 161 44" fill="none" xmlns="http://www.w3.org/2000/svg">
<path d="M54.196 28.9999H57.715V12.4399H54.196V28.9999Z" fill="#55AE36"/>
<path d="M64.9338 29.3679C68.6138 29.3679 71.0288 26.9989 71.0288 22.8129C71.0288 18.7649 68.6828 16.2349 64.9338 16.2349C61.2538 16.2349 58.8618 18.6039 58.8618 22.8129C58.8618 26.8839 61.1848 29.3679 64.9338 29.3679ZM64.9338 26.5159C63.3468 26.5159 62.4728 25.2049 62.4728 22.8129C62.4728 20.3979 63.3238 19.0869 64.9338 19.0869C66.5438 19.0869 67.4178 20.4209 67.4178 22.8129C67.4178 25.2279 66.5668 26.5159 64.9338 26.5159Z" fill="#55AE36"/>
<path d="M76.7538 29.0229C78.0878 29.0229 79.1918 28.4709 79.9738 27.3899V29.4599C79.9738 31.1849 79.1228 31.7599 77.8578 31.7599C76.6388 31.7599 75.6958 31.1619 75.5578 30.0579H72.0388C72.4758 33.0709 74.7528 34.4509 77.9038 34.4509C81.1468 34.4509 83.4928 32.7259 83.4928 29.4139V16.6259H79.9738V17.7759C79.2148 16.7639 78.1338 16.2349 76.7538 16.2349C73.6718 16.2349 71.6708 18.5349 71.6708 22.6519C71.6708 26.5849 73.6258 29.0229 76.7538 29.0229ZM77.6048 26.1709C76.0868 26.1709 75.2818 24.9059 75.2818 22.6519C75.2818 20.3289 76.0868 19.0869 77.6048 19.0869C79.1458 19.0869 79.9738 20.3519 79.9738 22.6289C79.9738 24.9289 79.1688 26.1709 77.6048 26.1709Z" fill="#55AE36"/>
<path d="M90.7315 29.3679C94.4115 29.3679 96.8265 26.9989 96.8265 22.8129C96.8265 18.7649 94.4805 16.2349 90.7315 16.2349C87.0515 16.2349 84.6595 18.6039 84.6595 22.8129C84.6595 26.8839 86.9825 29.3679 90.7315 29.3679ZM90.7315 26.5159C89.1445 26.5159 88.2705 25.2049 88.2705 22.8129C88.2705 20.3979 89.1215 19.0869 90.7315 19.0869C92.3415 19.0869 93.2155 20.4209 93.2155 22.8129C93.2155 25.2279 92.3645 26.5159 90.7315 26.5159Z" fill="#55AE36"/>
<path d="M97.9976 15.3839H101.517V12.4399H97.9976V15.3839ZM97.9976 28.9999H101.517V16.6259H97.9976V28.9999Z" fill="#55AE36"/>
<path d="M106.711 34.0829V27.7579C107.447 28.8159 108.505 29.3679 109.816 29.3679C112.967 29.3679 115.014 26.9989 115.014 22.7899C115.014 18.7419 113.013 16.2349 109.816 16.2349C108.528 16.2349 107.47 16.8329 106.711 17.9139V16.6259H103.192V34.0829H106.711ZM109.08 19.0869C110.575 19.0869 111.403 20.3979 111.403 22.7899C111.403 25.2049 110.598 26.5159 109.08 26.5159C107.539 26.5159 106.711 25.1819 106.711 22.7899C106.711 20.3979 107.516 19.0869 109.08 19.0869Z" fill="#55AE36"/>
<path d="M119.24 20.0529C119.24 19.3859 119.838 18.9259 120.758 18.9259C122 18.9259 122.736 19.4549 122.943 20.7199H126.439C126.094 17.5919 123.84 16.2349 120.873 16.2349C117.561 16.2349 115.882 18.1669 115.882 20.2369C115.882 25.2049 123.38 23.0659 123.38 25.4579C123.38 26.2169 122.759 26.6999 121.517 26.6999C120.206 26.6999 119.263 26.0789 119.102 24.9289H115.583C116.043 27.9879 118.297 29.3679 121.425 29.3679C124.645 29.3679 126.899 27.6889 126.899 25.2509C126.899 20.3519 119.24 22.4909 119.24 20.0529Z" fill="#55AE36"/>
<path d="M135.569 23.733C135.569 25.32 134.695 26.516 133.338 26.516C132.096 26.516 131.498 25.734 131.498 24.147V16.626H127.979V24.86C127.979 27.942 129.704 29.368 132.05 29.368C133.545 29.368 134.764 28.724 135.569 27.344V29H139.088V16.626H135.569V23.733Z" fill="#55AE36"/>
<path d="M140.788 28.9999H144.307V21.8929C144.307 20.3059 145.112 19.0869 146.331 19.0869C147.458 19.0869 148.01 19.8919 148.01 21.4559V28.9999H151.506V21.8929C151.506 20.3059 152.334 19.0869 153.553 19.0869C154.68 19.0869 155.209 19.8919 155.209 21.4559V28.9999H158.728V20.7429C158.728 17.6839 157.026 16.2349 154.726 16.2349C153.185 16.2349 151.874 16.8789 151.023 18.2819C150.402 16.9019 149.16 16.2349 147.688 16.2349C146.262 16.2349 145.089 16.8559 144.307 18.1899V16.6259H140.788V28.9999Z" fill="#55AE36"/>
<path d="M40.8504 34.0526C44.6624 30.6486 47 26.0548 47 21C47 10.5066 36.9264 2 24.5 2C12.0736 2 2 10.5066 2 21C2 31.4934 12.0736 40 24.5 40C28.0253 40 31.3613 39.3154 34.3316 38.0949C37.8208 40.2486 42.0957 41.7967 46.8169 41.4702C44.3227 40.8362 42.1773 38.2679 40.8504 34.0526Z" fill="#B6EFA2"/>
<path d="M41 21C41 28.732 33.6127 35 24.5 35C15.3873 35 8 28.732 8 21C8 13.268 15.3873 7 24.5 7C33.6127 7 41 13.268 41 21Z" fill="#88E169"/>
<path d="M35 21C35 25.9706 30.299 30 24.5 30C18.701 30 14 25.9706 14 21C14 16.0294 18.701 12 24.5 12C30.299 12 35 16.0294 35 21Z" fill="#55AE36"/>
</svg>
