<svg width="171" height="33" viewBox="0 0 171 33" fill="none" xmlns="http://www.w3.org/2000/svg">
<g clip-path="url(#clip0_1773_528)">
<path d="M67.5821 7.03418H64V23.1974H73.9164V20.0303H67.5821V7.03418Z" fill="#4845D2"/>
<path d="M74.2585 17.7146C74.2585 21.1657 76.5738 23.4591 80.0685 23.4591C83.5414 23.4591 85.8567 21.1657 85.8567 17.7146C85.8567 14.2635 83.5414 11.9482 80.0685 11.9482C76.5738 11.9482 74.2585 14.2635 74.2585 17.7146ZM77.644 17.6927C77.644 16.0546 78.6051 14.9625 80.0685 14.9625C81.5101 14.9625 82.4712 16.0546 82.4712 17.6927C82.4712 19.3528 81.5101 20.4449 80.0685 20.4449C78.6051 20.4449 77.644 19.3528 77.644 17.6927Z" fill="#4845D2"/>
<path d="M86.3977 17.5401C86.3977 20.8382 88.5383 23.0661 91.5743 23.0661C93.0378 23.0661 94.3046 22.5419 94.938 21.6901V23.1972C94.938 24.7043 93.9988 25.709 92.3388 25.709C90.8535 25.709 89.8269 25.0101 89.7614 23.7651H86.354C86.6598 26.7575 88.9751 28.7669 92.1422 28.7669C95.8772 28.7669 98.2362 26.3425 98.2362 22.4982V12.2761H95.2001L95.0254 13.39C94.4138 12.4945 93.1251 11.9048 91.6399 11.9048C88.5819 11.9048 86.3977 14.1982 86.3977 17.5401ZM89.8051 17.4527C89.8051 15.88 90.8535 14.8316 92.1859 14.8316C93.7367 14.8316 94.8725 15.8582 94.8725 17.4527C94.8725 19.0472 93.7585 20.1393 92.2077 20.1393C90.8754 20.1393 89.8051 19.0472 89.8051 17.4527Z" fill="#4845D2"/>
<path d="M99.2166 17.7146C99.2166 21.1657 101.532 23.4591 105.027 23.4591C108.5 23.4591 110.815 21.1657 110.815 17.7146C110.815 14.2635 108.5 11.9482 105.027 11.9482C101.532 11.9482 99.2166 14.2635 99.2166 17.7146ZM102.602 17.6927C102.602 16.0546 103.563 14.9625 105.027 14.9625C106.468 14.9625 107.429 16.0546 107.429 17.6927C107.429 19.3528 106.468 20.4449 105.027 20.4449C103.563 20.4449 102.602 19.3528 102.602 17.6927Z" fill="#4845D2"/>
<path d="M113.715 10.5724C114.763 10.5724 115.615 9.72054 115.615 8.65027C115.615 7.58 114.763 6.75 113.715 6.75C112.645 6.75 111.793 7.58 111.793 8.65027C111.793 9.72054 112.645 10.5724 113.715 10.5724ZM112.011 23.1972H115.397V12.2761H112.011V23.1972Z" fill="#4845D2"/>
<path d="M117.368 28.4395H120.688V22.1053C121.321 22.9353 122.763 23.5032 124.27 23.5032C127.524 23.5032 129.49 21.0132 129.403 17.5621C129.315 14.0455 127.284 11.9268 124.248 11.9268C122.697 11.9268 121.234 12.6039 120.622 13.6087L120.447 12.2763H117.368V28.4395ZM120.753 17.7368C120.753 16.0987 121.845 15.0066 123.418 15.0066C125.012 15.0066 126.017 16.1205 126.017 17.7368C126.017 19.3532 125.012 20.4671 123.418 20.4671C121.845 20.4671 120.753 19.375 120.753 17.7368Z" fill="#4845D2"/>
<path d="M129.761 19.7463C129.848 21.9524 131.596 23.4813 134.348 23.4813C136.991 23.4813 138.826 22.0834 138.826 19.8337C138.826 18.2174 137.865 17.1471 136.073 16.7102L134.13 16.2297C133.431 16.055 132.994 15.8802 132.994 15.3123C132.994 14.7444 133.452 14.3731 134.13 14.3731C134.894 14.3731 135.396 14.8755 135.375 15.6181H138.411C138.323 13.3465 136.598 11.9268 134.195 11.9268C131.771 11.9268 129.958 13.3684 129.958 15.5526C129.958 17.016 130.766 18.2174 132.928 18.7853L134.85 19.2876C135.418 19.4405 135.658 19.7026 135.658 20.0739C135.658 20.62 135.156 20.9695 134.304 20.9695C133.321 20.9695 132.797 20.5108 132.797 19.7463H129.761Z" fill="#4845D2"/>
<path d="M143.974 23.4809C145.307 23.4809 146.639 22.8693 147.316 21.9738L147.535 23.197H150.702V12.2759H147.338V17.9549C147.338 19.593 146.858 20.4885 145.307 20.4885C144.105 20.4885 143.319 19.9425 143.319 17.9112V12.2759H139.955V19.1343C139.955 21.7336 141.397 23.4809 143.974 23.4809Z" fill="#4845D2"/>
<path d="M156.036 23.1972V17.2343C156.036 15.3995 157.019 14.8753 157.98 14.8753C159.05 14.8753 159.749 15.5306 159.749 16.8848V23.1972H163.069V17.2343C163.069 15.3777 164.03 14.8535 164.991 14.8535C166.061 14.8535 166.782 15.5087 166.782 16.8848V23.1972H170.059V16.0548C170.059 13.5648 168.748 11.9048 165.93 11.9048C164.358 11.9048 163.069 12.6692 162.501 13.8487C161.846 12.6692 160.71 11.9048 158.897 11.9048C157.696 11.9048 156.582 12.4508 155.927 13.3245L155.796 12.2761H152.65V23.1972H156.036Z" fill="#4845D2"/>
<path d="M0 16.75C0 7.91344 7.16344 0.75 16 0.75H37C45.8366 0.75 53 7.91344 53 16.75V32.75H16C7.16344 32.75 0 25.5866 0 16.75Z" fill="#4845D2"/>
<path d="M37 6.75H16C10.4772 6.75 6 11.2272 6 16.75C6 22.2728 10.4772 26.75 16 26.75H37C42.5228 26.75 47 22.2728 47 16.75C47 11.2272 42.5228 6.75 37 6.75Z" fill="#A5B4FC"/>
<path d="M16 21.75C18.7614 21.75 21 19.5114 21 16.75C21 13.9886 18.7614 11.75 16 11.75C13.2386 11.75 11 13.9886 11 16.75C11 19.5114 13.2386 21.75 16 21.75Z" fill="black"/>
<path d="M14 15.75C14.5523 15.75 15 15.3023 15 14.75C15 14.1977 14.5523 13.75 14 13.75C13.4477 13.75 13 14.1977 13 14.75C13 15.3023 13.4477 15.75 14 15.75Z" fill="white"/>
<path d="M38 21.75C40.7614 21.75 43 19.5114 43 16.75C43 13.9886 40.7614 11.75 38 11.75C35.2386 11.75 33 13.9886 33 16.75C33 19.5114 35.2386 21.75 38 21.75Z" fill="black"/>
<path d="M36 15.75C36.5523 15.75 37 15.3023 37 14.75C37 14.1977 36.5523 13.75 36 13.75C35.4477 13.75 35 14.1977 35 14.75C35 15.3023 35.4477 15.75 36 15.75Z" fill="white"/>
</g>
<defs>
<clipPath id="clip0_1773_528">
<rect width="171" height="32" fill="white" transform="translate(0 0.75)"/>
</clipPath>
</defs>
</svg>
