<svg width="172" height="40" viewBox="0 0 172 40" fill="none" xmlns="http://www.w3.org/2000/svg">
<g clip-path="url(#clip0_1773_799)">
<path d="M49.0364 29.0002H60.3891V25.7675H52.4982V10.6729H49.0364V29.0002Z" fill="#23216E"/>
<path d="M67.2113 29.3817C68.5859 29.3817 69.795 29.0762 70.8386 28.4653C71.8907 27.8459 72.7095 26.9932 73.295 25.9072C73.8889 24.8126 74.1859 23.5526 74.1859 22.1272C74.1859 20.7102 73.8931 19.4587 73.3077 18.3726C72.7222 17.2781 71.9034 16.4211 70.8513 15.8017C69.8077 15.1823 68.5944 14.8726 67.2113 14.8726C65.8537 14.8726 64.6531 15.1781 63.6095 15.789C62.5659 16.3999 61.7471 17.2526 61.1531 18.3472C60.5592 19.4332 60.2622 20.6932 60.2622 22.1272C60.2622 23.5441 60.5507 24.7999 61.1277 25.8944C61.7131 26.9805 62.5277 27.8332 63.5713 28.4526C64.615 29.072 65.8283 29.3817 67.2113 29.3817ZM67.2113 26.149C66.1337 26.149 65.315 25.7884 64.755 25.0672C64.2034 24.3375 63.9277 23.3575 63.9277 22.1272C63.9277 20.9308 64.1907 19.9635 64.7168 19.2253C65.2513 18.4787 66.0828 18.1053 67.2113 18.1053C68.3059 18.1053 69.1289 18.4702 69.6804 19.1999C70.2404 19.9296 70.5204 20.9053 70.5204 22.1272C70.5204 23.3066 70.2447 24.2738 69.6931 25.029C69.1501 25.7756 68.3228 26.149 67.2113 26.149Z" fill="#23216E"/>
<path d="M81.0319 29.3817C81.6768 29.3817 82.2707 29.3053 82.8138 29.1526C83.3653 28.9999 83.8659 28.7835 84.3156 28.5035V29.8908C84.3326 30.3999 84.201 30.8241 83.921 31.1635C83.6495 31.5114 83.2847 31.7702 82.8265 31.9399C82.3683 32.1181 81.8804 32.2072 81.3629 32.2072C80.8792 32.2072 80.4295 32.1011 80.0138 31.889C79.6065 31.6769 79.2925 31.3672 79.0719 30.9599L75.8647 32.5126C76.3907 33.4035 77.1416 34.1205 78.1174 34.6635C79.0932 35.215 80.1665 35.4908 81.3374 35.4908C82.3471 35.4908 83.2847 35.355 84.1501 35.0835C85.0156 34.8205 85.7453 34.4175 86.3392 33.8744C86.9416 33.3314 87.3532 32.6399 87.5738 31.7999C87.6501 31.5029 87.701 31.2017 87.7265 30.8962C87.7604 30.5993 87.7774 30.2811 87.7774 29.9417V15.2544H84.7483V16.0181C84.2816 15.6532 83.7513 15.3732 83.1574 15.1781C82.5719 14.9744 81.9229 14.8726 81.2101 14.8726C79.895 14.8726 78.7495 15.1866 77.7738 15.8144C76.798 16.4423 76.0386 17.3035 75.4956 18.3981C74.961 19.4841 74.6938 20.7272 74.6938 22.1272C74.6938 23.5017 74.9568 24.7362 75.4829 25.8308C76.0174 26.9253 76.7598 27.7908 77.7101 28.4272C78.6604 29.0635 79.7677 29.3817 81.0319 29.3817ZM81.5919 26.3017C80.8453 26.3017 80.2344 26.115 79.7592 25.7417C79.2841 25.3684 78.9319 24.8678 78.7029 24.2399C78.4738 23.6035 78.3592 22.8993 78.3592 22.1272C78.3592 21.3635 78.478 20.6678 78.7156 20.0399C78.9532 19.4035 79.318 18.8987 79.8101 18.5253C80.3107 18.1435 80.9471 17.9526 81.7192 17.9526C82.8053 17.9526 83.5816 18.3387 84.0483 19.1108C84.515 19.8744 84.7483 20.8799 84.7483 22.1272C84.7483 23.3744 84.5107 24.3841 84.0356 25.1562C83.5689 25.9199 82.7544 26.3017 81.5919 26.3017Z" fill="#23216E"/>
<path d="M95.9998 29.3817C97.3744 29.3817 98.5835 29.0762 99.6271 28.4653C100.679 27.8459 101.498 26.9932 102.083 25.9072C102.677 24.8126 102.974 23.5526 102.974 22.1272C102.974 20.7102 102.682 19.4587 102.096 18.3726C101.511 17.2781 100.692 16.4211 99.6398 15.8017C98.5962 15.1823 97.3828 14.8726 95.9998 14.8726C94.6422 14.8726 93.4416 15.1781 92.398 15.789C91.3544 16.3999 90.5356 17.2526 89.9416 18.3472C89.3477 19.4332 89.0507 20.6932 89.0507 22.1272C89.0507 23.5441 89.3392 24.7999 89.9162 25.8944C90.5016 26.9805 91.3162 27.8332 92.3598 28.4526C93.4035 29.072 94.6168 29.3817 95.9998 29.3817ZM95.9998 26.149C94.9222 26.149 94.1034 25.7884 93.5434 25.0672C92.9919 24.3375 92.7162 23.3575 92.7162 22.1272C92.7162 20.9308 92.9792 19.9635 93.5053 19.2253C94.0398 18.4787 94.8713 18.1053 95.9998 18.1053C97.0944 18.1053 97.9174 18.4702 98.4689 19.1999C99.0289 19.9296 99.3089 20.9053 99.3089 22.1272C99.3089 23.3066 99.0331 24.2738 98.4816 25.029C97.9386 25.7756 97.1113 26.149 95.9998 26.149Z" fill="#23216E"/>
<path d="M104.5 13.3455H107.962V10.291H104.5V13.3455ZM104.5 29.0001H107.962V15.2546H104.5V29.0001Z" fill="#23216E"/>
<path d="M110.225 35.109H113.712V28.5035C114.162 28.7835 114.658 28.9999 115.201 29.1526C115.753 29.3053 116.351 29.3817 116.996 29.3817C118.26 29.3817 119.368 29.0635 120.318 28.4272C121.268 27.7908 122.006 26.9253 122.532 25.8308C123.067 24.7362 123.334 23.5017 123.334 22.1272C123.334 20.7272 123.063 19.4841 122.52 18.3981C121.985 17.3035 121.23 16.4423 120.254 15.8144C119.278 15.1866 118.133 14.8726 116.818 14.8726C116.105 14.8726 115.452 14.9744 114.858 15.1781C114.272 15.3732 113.746 15.6532 113.28 16.0181V15.2544H110.225V35.109ZM116.436 26.3017C115.282 26.3017 114.468 25.9199 113.992 25.1562C113.517 24.3841 113.28 23.3744 113.28 22.1272C113.28 20.8799 113.513 19.8744 113.98 19.1108C114.455 18.3387 115.231 17.9526 116.309 17.9526C117.081 17.9526 117.713 18.1435 118.205 18.5253C118.706 18.8987 119.075 19.4035 119.312 20.0399C119.55 20.6678 119.669 21.3635 119.669 22.1272C119.669 22.8993 119.554 23.6035 119.325 24.2399C119.096 24.8678 118.744 25.3684 118.269 25.7417C117.794 26.115 117.183 26.3017 116.436 26.3017Z" fill="#23216E"/>
<path d="M129.606 29.3817C131.404 29.3817 132.813 28.9787 133.831 28.1726C134.849 27.3665 135.358 26.2593 135.358 24.8508C135.358 23.7817 135.027 22.9375 134.366 22.3181C133.712 21.6987 132.601 21.1853 131.031 20.7781C129.962 20.5065 129.164 20.2859 128.638 20.1162C128.121 19.9466 127.777 19.7811 127.607 19.6199C127.446 19.4587 127.366 19.2593 127.366 19.0217C127.366 18.6229 127.556 18.3175 127.938 18.1053C128.329 17.8932 128.842 17.8084 129.478 17.8508C130.827 17.9526 131.566 18.5296 131.693 19.5817L135.231 18.9453C135.053 17.6981 134.442 16.7096 133.398 15.9799C132.355 15.2417 131.023 14.8726 129.402 14.8726C127.739 14.8726 126.411 15.2629 125.418 16.0435C124.426 16.8241 123.929 17.8762 123.929 19.1999C123.929 20.252 124.273 21.0835 124.96 21.6944C125.647 22.2969 126.831 22.8144 128.511 23.2472C129.504 23.5102 130.233 23.7223 130.7 23.8835C131.175 24.0447 131.481 24.2102 131.616 24.3799C131.752 24.5411 131.82 24.7575 131.82 25.029C131.82 25.4617 131.65 25.8011 131.311 26.0472C130.972 26.2847 130.488 26.4035 129.86 26.4035C129.096 26.4035 128.464 26.2211 127.964 25.8562C127.472 25.4914 127.153 24.9866 127.009 24.3417L123.471 24.8762C123.7 26.3102 124.345 27.4217 125.406 28.2108C126.475 28.9914 127.875 29.3817 129.606 29.3817Z" fill="#23216E"/>
<path d="M141.744 29.4072C142.737 29.4072 143.602 29.2417 144.341 28.9108C145.079 28.5799 145.698 28.1387 146.199 27.5872V28.9999H149.253V15.2544H145.766V22.229C145.766 23.0775 145.668 23.7647 145.473 24.2908C145.287 24.8084 145.045 25.2029 144.748 25.4744C144.451 25.7375 144.133 25.9156 143.793 26.009C143.454 26.1023 143.136 26.149 142.839 26.149C142.101 26.149 141.528 25.9835 141.121 25.6526C140.722 25.3217 140.433 24.9102 140.255 24.4181C140.077 23.9259 139.971 23.4381 139.937 22.9544C139.903 22.4623 139.886 22.0593 139.886 21.7453V15.2544H136.373V22.9672C136.373 23.1962 136.39 23.5611 136.424 24.0617C136.458 24.5623 136.556 25.1181 136.717 25.729C136.878 26.3314 137.145 26.9126 137.519 27.4726C137.901 28.0326 138.431 28.495 139.11 28.8599C139.788 29.2247 140.667 29.4072 141.744 29.4072Z" fill="#23216E"/>
<path d="M151.258 29.0002H154.745V20.6765C154.745 19.8875 154.961 19.2469 155.394 18.7547C155.835 18.2541 156.416 18.0038 157.138 18.0038C157.893 18.0038 158.483 18.2584 158.907 18.7675C159.339 19.2681 159.556 19.9723 159.556 20.8802V29.0002H163.018V20.6765C163.018 19.8875 163.234 19.2469 163.667 18.7547C164.108 18.2541 164.689 18.0038 165.41 18.0038C166.166 18.0038 166.755 18.2584 167.179 18.7675C167.612 19.2681 167.829 19.9723 167.829 20.8802V29.0002H171.29V19.9638C171.29 18.462 170.887 17.2487 170.081 16.3238C169.284 15.3905 168.1 14.9238 166.53 14.9238C165.648 14.9238 164.838 15.1147 164.099 15.4965C163.361 15.8784 162.772 16.4002 162.33 17.062C161.974 16.4172 161.465 15.8996 160.803 15.5093C160.141 15.119 159.318 14.9238 158.334 14.9238C157.502 14.9238 156.739 15.0893 156.043 15.4202C155.347 15.7426 154.77 16.1881 154.312 16.7565V15.2547H151.258V29.0002Z" fill="#23216E"/>
<path d="M20 0C8.9543 0 0 8.9543 0 20C11.0457 20 20 11.0457 20 0Z" fill="#45D2B0"/>
<path d="M20 40C31.0457 40 40 31.0457 40 20C28.9543 20 20 28.9543 20 40Z" fill="#45D2B0"/>
<path d="M20 0C31.0457 0 40 8.9543 40 20C28.9543 20 20 11.0457 20 0Z" fill="#23216E"/>
<path d="M20 40C8.9543 40 -9.65645e-07 31.0457 0 20C11.0457 20 20 28.9543 20 40Z" fill="#23216E"/>
</g>
<defs>
<clipPath id="clip0_1773_799">
<rect width="172" height="40" fill="white"/>
</clipPath>
</defs>
</svg>
