<svg width="194" height="56" viewBox="0 0 194 56" fill="none" xmlns="http://www.w3.org/2000/svg">
<g clip-path="url(#clip0_1792_728)">
<path d="M63.8601 35.638H75.8121V32.038H68.1081V18.478H63.8601V35.638Z" fill="#340E0E"/>
<path d="M82.8933 33.2382C81.1893 33.2382 80.3013 31.7502 80.3013 29.5182C80.3013 27.2862 81.1893 25.7742 82.8933 25.7742C84.5973 25.7742 85.5093 27.2862 85.5093 29.5182C85.5093 31.7502 84.5973 33.2382 82.8933 33.2382ZM82.9173 36.0222C86.8773 36.0222 89.4693 33.2142 89.4693 29.5182C89.4693 25.8222 86.8773 23.0142 82.9173 23.0142C78.9813 23.0142 76.3413 25.8222 76.3413 29.5182C76.3413 33.2142 78.9813 36.0222 82.9173 36.0222Z" fill="#340E0E"/>
<path d="M96.3238 39.8862C98.1478 39.8862 99.7558 39.4782 100.836 38.5182C101.82 37.6302 102.468 36.2862 102.468 34.4382V23.3502H98.7238V24.6702H98.6758C97.9558 23.6382 96.8518 22.9902 95.2198 22.9902C92.1718 22.9902 90.0598 25.5342 90.0598 29.1342C90.0598 32.9022 92.6278 34.9662 95.3878 34.9662C96.8758 34.9662 97.8118 34.3662 98.5318 33.5502H98.6278V34.7742C98.6278 36.2622 97.9318 37.1262 96.2758 37.1262C94.9798 37.1262 94.3318 36.5742 94.1158 35.9262H90.3238C90.7078 38.4942 92.9398 39.8862 96.3238 39.8862ZM96.2998 32.0622C94.8358 32.0622 93.8758 30.8622 93.8758 29.0142C93.8758 27.1422 94.8358 25.9422 96.2998 25.9422C97.9318 25.9422 98.7958 27.3342 98.7958 28.9902C98.7958 30.7182 98.0038 32.0622 96.2998 32.0622Z" fill="#340E0E"/>
<path d="M110.166 33.2382C108.462 33.2382 107.574 31.7502 107.574 29.5182C107.574 27.2862 108.462 25.7742 110.166 25.7742C111.87 25.7742 112.782 27.2862 112.782 29.5182C112.782 31.7502 111.87 33.2382 110.166 33.2382ZM110.19 36.0222C114.15 36.0222 116.742 33.2142 116.742 29.5182C116.742 25.8222 114.15 23.0142 110.19 23.0142C106.254 23.0142 103.614 25.8222 103.614 29.5182C103.614 33.2142 106.254 36.0222 110.19 36.0222Z" fill="#340E0E"/>
<path d="M117.884 35.638H121.796V23.35H117.884V35.638ZM117.884 21.646H121.796V18.478H117.884V21.646Z" fill="#340E0E"/>
<path d="M123.494 39.6942H127.406V34.3662H127.454C128.222 35.3982 129.35 36.0222 130.934 36.0222C134.15 36.0222 136.286 33.4782 136.286 29.4942C136.286 25.7982 134.294 22.9902 131.03 22.9902C129.35 22.9902 128.15 23.7342 127.31 24.8382H127.238V23.3502H123.494V39.6942ZM129.926 32.9982C128.246 32.9982 127.286 31.6302 127.286 29.6382C127.286 27.6462 128.15 26.1342 129.854 26.1342C131.534 26.1342 132.326 27.5262 132.326 29.6382C132.326 31.7262 131.414 32.9982 129.926 32.9982Z" fill="#340E0E"/>
<path d="M142.655 36.0222C145.871 36.0222 148.247 34.6302 148.247 31.9422C148.247 28.7982 145.703 28.2462 143.543 27.8862C141.983 27.5982 140.591 27.4782 140.591 26.6142C140.591 25.8462 141.335 25.4862 142.295 25.4862C143.375 25.4862 144.119 25.8222 144.263 26.9262H147.863C147.671 24.5022 145.799 22.9902 142.319 22.9902C139.415 22.9902 137.015 24.3342 137.015 26.9262C137.015 29.8062 139.295 30.3822 141.431 30.7422C143.063 31.0302 144.551 31.1502 144.551 32.2542C144.551 33.0462 143.807 33.4782 142.631 33.4782C141.335 33.4782 140.519 32.8782 140.375 31.6542H136.679C136.799 34.3662 139.055 36.0222 142.655 36.0222Z" fill="#340E0E"/>
<path d="M153.561 35.9981C155.265 35.9981 156.345 35.3261 157.233 34.1261H157.305V35.6381H161.049V23.3501H157.137V30.2141C157.137 31.6781 156.321 32.6861 154.977 32.6861C153.729 32.6861 153.129 31.9421 153.129 30.5981V23.3501H149.241V31.4141C149.241 34.1501 150.729 35.9981 153.561 35.9981Z" fill="#340E0E"/>
<path d="M162.75 35.6382H166.662V28.7502C166.662 27.2862 167.382 26.2542 168.606 26.2542C169.782 26.2542 170.334 27.0222 170.334 28.3422V35.6382H174.246V28.7502C174.246 27.2862 174.942 26.2542 176.19 26.2542C177.366 26.2542 177.918 27.0222 177.918 28.3422V35.6382H181.83V27.6462C181.83 24.8862 180.438 22.9902 177.654 22.9902C176.07 22.9902 174.75 23.6622 173.79 25.1502H173.742C173.118 23.8302 171.894 22.9902 170.286 22.9902C168.51 22.9902 167.334 23.8302 166.566 25.1022H166.494V23.3502H162.75V35.6382Z" fill="#340E0E"/>
<path fill-rule="evenodd" clip-rule="evenodd" d="M32.6841 47.6382C43.7298 47.6382 52.6841 38.6839 52.6841 27.6382C52.6841 16.5925 43.7298 7.63818 32.6841 7.63818C21.6384 7.63818 12.6841 16.5925 12.6841 27.6382C12.6841 38.6839 21.6384 47.6382 32.6841 47.6382ZM38.9234 16.955C39.2271 15.8762 38.1802 15.2383 37.2241 15.9195L23.8772 25.4278C22.8403 26.1665 23.0034 27.6382 24.1222 27.6382H27.6368V27.611H34.4866L28.9053 29.5803L26.4448 38.3214C26.1411 39.4002 27.1879 40.0381 28.1441 39.3569L41.491 29.8487C42.5279 29.11 42.3647 27.6382 41.246 27.6382H35.9162L38.9234 16.955Z" fill="#F15757"/>
</g>
<defs>
<clipPath id="clip0_1792_728">
<rect width="170" height="41" fill="white" transform="translate(12 7.5)"/>
</clipPath>
</defs>
</svg>
