<svg width="168" height="42" viewBox="0 0 168 42" fill="none" xmlns="http://www.w3.org/2000/svg">
<g clip-path="url(#clip0_1773_753)">
<path d="M49.2775 29.4525H61.2295V25.8525H53.5255V12.2925H49.2775V29.4525Z" fill="#3C2B1F"/>
<path d="M68.3107 27.0526C66.6067 27.0526 65.7187 25.5646 65.7187 23.3326C65.7187 21.1006 66.6067 19.5886 68.3107 19.5886C70.0147 19.5886 70.9267 21.1006 70.9267 23.3326C70.9267 25.5646 70.0147 27.0526 68.3107 27.0526ZM68.3347 29.8366C72.2947 29.8366 74.8867 27.0286 74.8867 23.3326C74.8867 19.6366 72.2947 16.8286 68.3347 16.8286C64.3987 16.8286 61.7587 19.6366 61.7587 23.3326C61.7587 27.0286 64.3987 29.8366 68.3347 29.8366Z" fill="#3C2B1F"/>
<path d="M81.7411 33.7002C83.5651 33.7002 85.1731 33.2922 86.2531 32.3322C87.2371 31.4442 87.8851 30.1002 87.8851 28.2522V17.1642H84.1411V18.4842H84.0931C83.3731 17.4522 82.2691 16.8042 80.6371 16.8042C77.5891 16.8042 75.4771 19.3482 75.4771 22.9482C75.4771 26.7162 78.0451 28.7802 80.8051 28.7802C82.2931 28.7802 83.2291 28.1802 83.9491 27.3642H84.0451V28.5882C84.0451 30.0762 83.3491 30.9402 81.6931 30.9402C80.3971 30.9402 79.7491 30.3882 79.5331 29.7402H75.7411C76.1251 32.3082 78.3571 33.7002 81.7411 33.7002ZM81.7171 25.8762C80.2531 25.8762 79.2931 24.6762 79.2931 22.8282C79.2931 20.9562 80.2531 19.7562 81.7171 19.7562C83.3491 19.7562 84.2131 21.1482 84.2131 22.8042C84.2131 24.5322 83.4211 25.8762 81.7171 25.8762Z" fill="#3C2B1F"/>
<path d="M95.5835 27.0526C93.8795 27.0526 92.9915 25.5646 92.9915 23.3326C92.9915 21.1006 93.8795 19.5886 95.5835 19.5886C97.2875 19.5886 98.1995 21.1006 98.1995 23.3326C98.1995 25.5646 97.2875 27.0526 95.5835 27.0526ZM95.6075 29.8366C99.5675 29.8366 102.159 27.0286 102.159 23.3326C102.159 19.6366 99.5675 16.8286 95.6075 16.8286C91.6715 16.8286 89.0315 19.6366 89.0315 23.3326C89.0315 27.0286 91.6715 29.8366 95.6075 29.8366Z" fill="#3C2B1F"/>
<path d="M103.302 29.4525H107.214V17.1645H103.302V29.4525ZM103.302 15.4605H107.214V12.2925H103.302V15.4605Z" fill="#3C2B1F"/>
<path d="M108.911 33.5082H112.823V28.1802H112.871C113.639 29.2122 114.767 29.8362 116.351 29.8362C119.567 29.8362 121.703 27.2922 121.703 23.3082C121.703 19.6122 119.711 16.8042 116.447 16.8042C114.767 16.8042 113.567 17.5482 112.727 18.6522H112.655V17.1642H108.911V33.5082ZM115.343 26.8122C113.663 26.8122 112.703 25.4442 112.703 23.4522C112.703 21.4602 113.567 19.9482 115.271 19.9482C116.951 19.9482 117.743 21.3402 117.743 23.4522C117.743 25.5402 116.831 26.8122 115.343 26.8122Z" fill="#3C2B1F"/>
<path d="M128.072 29.8362C131.288 29.8362 133.664 28.4442 133.664 25.7562C133.664 22.6122 131.12 22.0602 128.96 21.7002C127.4 21.4122 126.008 21.2922 126.008 20.4282C126.008 19.6602 126.752 19.3002 127.712 19.3002C128.792 19.3002 129.536 19.6362 129.68 20.7402H133.28C133.088 18.3162 131.216 16.8042 127.736 16.8042C124.832 16.8042 122.432 18.1482 122.432 20.7402C122.432 23.6202 124.712 24.1962 126.848 24.5562C128.48 24.8442 129.968 24.9642 129.968 26.0682C129.968 26.8602 129.224 27.2922 128.048 27.2922C126.752 27.2922 125.936 26.6922 125.792 25.4682H122.096C122.216 28.1802 124.472 29.8362 128.072 29.8362Z" fill="#3C2B1F"/>
<path d="M138.978 29.8126C140.682 29.8126 141.762 29.1405 142.65 27.9405H142.722V29.4526H146.466V17.1646H142.554V24.0286C142.554 25.4926 141.738 26.5006 140.394 26.5006C139.146 26.5006 138.546 25.7565 138.546 24.4125V17.1646H134.658V25.2285C134.658 27.9646 136.146 29.8126 138.978 29.8126Z" fill="#3C2B1F"/>
<path d="M148.168 29.4522H152.08V22.5642C152.08 21.1002 152.8 20.0682 154.024 20.0682C155.2 20.0682 155.752 20.8362 155.752 22.1562V29.4522H159.664V22.5642C159.664 21.1002 160.36 20.0682 161.608 20.0682C162.784 20.0682 163.336 20.8362 163.336 22.1562V29.4522H167.248V21.4602C167.248 18.7002 165.856 16.8042 163.072 16.8042C161.488 16.8042 160.168 17.4762 159.208 18.9642H159.16C158.536 17.6442 157.312 16.8042 155.704 16.8042C153.928 16.8042 152.752 17.6442 151.984 18.9162H151.912V17.1642H148.168V29.4522Z" fill="#3C2B1F"/>
<path d="M25.4099 2.47671L21.4769 1.42285L18.1625 13.7924L15.1702 2.62509L11.2371 3.67895L14.4701 15.7444L6.41746 7.69183L3.53827 10.571L12.371 19.4038L1.37124 16.4564L0.317383 20.3894L12.336 23.6098C12.1984 23.0163 12.1256 22.3979 12.1256 21.7625C12.1256 17.2649 15.7716 13.6189 20.2692 13.6189C24.7668 13.6189 28.4128 17.2649 28.4128 21.7625C28.4128 22.3938 28.3409 23.0084 28.205 23.5984L39.1277 26.5251L40.1815 22.5921L28.1151 19.3589L39.1156 16.4113L38.0617 12.4783L25.9958 15.7113L34.0484 7.65877L31.1692 4.77958L22.459 13.4898L25.4099 2.47671Z" fill="#F97316"/>
<path d="M28.1944 23.6445C27.8572 25.0701 27.1453 26.3508 26.1685 27.3769L34.0815 35.29L36.9607 32.4108L28.1944 23.6445Z" fill="#F97316"/>
<path d="M26.0884 27.4595C25.0998 28.4692 23.8505 29.2227 22.4495 29.611L25.3289 40.357L29.2619 39.3031L26.0884 27.4595Z" fill="#F97316"/>
<path d="M22.3026 29.6503C21.6526 29.8174 20.9713 29.9062 20.2692 29.9062C19.517 29.9062 18.7886 29.8042 18.0971 29.6133L15.2151 40.3691L19.1481 41.4229L22.3026 29.6503Z" fill="#F97316"/>
<path d="M17.9581 29.5739C16.5785 29.1663 15.3514 28.4032 14.383 27.3906L6.45056 35.3231L9.32975 38.2023L17.9581 29.5739Z" fill="#F97316"/>
<path d="M14.3168 27.3205C13.365 26.3015 12.6717 25.0379 12.3417 23.6343L1.3833 26.5706L2.43715 30.5036L14.3168 27.3205Z" fill="#F97316"/>
</g>
<defs>
<clipPath id="clip0_1773_753">
<rect width="168" height="41" fill="white" transform="translate(0 0.5)"/>
</clipPath>
</defs>
</svg>
