<svg width="58" height="58" viewBox="0 0 58 58" fill="none" xmlns="http://www.w3.org/2000/svg">
<path d="M22.9319 50.0441C24.1301 51.5481 25.8898 52.5215 27.8214 52.7487C29.753 52.976 31.6972 52.4385 33.2239 51.2552C33.6934 50.9052 34.1159 50.4982 34.4812 50.0441M8.40201 33.0889V32.5633C8.47911 31.0084 8.97746 29.5018 9.84568 28.1989C11.2908 26.6337 12.2801 24.7157 12.7097 22.6462C12.7097 21.0466 12.7097 19.4242 12.8494 17.8247C13.5713 10.124 21.1855 4.7998 28.7066 4.7998H28.8928C36.4139 4.7998 44.0281 10.124 44.7732 17.8247C44.9129 19.4242 44.7732 21.0466 44.8897 22.6462C45.3251 24.7205 46.3134 26.6445 47.7537 28.2217C48.6284 29.5131 49.1276 31.0142 49.1974 32.5633V33.066C49.2494 35.1551 48.5299 37.1922 47.1716 38.8016C45.3767 40.6833 42.9411 41.8541 40.3258 42.092C32.6568 42.9147 24.9193 42.9147 17.2503 42.092C14.638 41.8438 12.2058 40.6748 10.4045 38.8016C9.06722 37.1909 8.3574 35.166 8.40201 33.0889Z" stroke="#200E32" stroke-width="3" stroke-linecap="round" stroke-linejoin="round"/>
</svg>
