<svg width="64" height="64" viewBox="0 0 64 64" fill="none" xmlns="http://www.w3.org/2000/svg">
<path d="M7.00201 26.999C5.34801 26.999 4.00201 28.345 4.00201 29.999C4.00201 31.653 5.34801 32.999 7.00201 32.999C8.65601 32.999 10.002 31.653 10.002 29.999C10.002 28.345 8.65601 26.999 7.00201 26.999ZM7.00201 30.999C6.45001 30.999 6.00201 30.551 6.00201 29.999C6.00201 29.447 6.45001 28.999 7.00201 28.999C7.55401 28.999 8.00201 29.447 8.00201 29.999C8.00201 30.551 7.55401 30.999 7.00201 30.999ZM24.449 28.104C23.955 27.858 23.355 28.057 23.107 28.551L22.107 30.551C21.86 31.045 22.06 31.646 22.554 31.893C22.698 31.964 22.85 31.998 23 31.998C23.367 31.998 23.72 31.796 23.896 31.445L24.896 29.445C25.144 28.952 24.943 28.352 24.449 28.104ZM28.449 28.104C27.956 27.858 27.355 28.057 27.107 28.551L26.107 30.551C25.86 31.045 26.06 31.646 26.554 31.893C26.698 31.964 26.85 31.998 27 31.998C27.367 31.998 27.72 31.796 27.896 31.445L28.896 29.445C29.144 28.952 28.943 28.352 28.449 28.104ZM32.449 28.104C31.955 27.858 31.355 28.057 31.107 28.551L30.107 30.551C29.86 31.045 30.06 31.646 30.554 31.893C30.698 31.964 30.85 31.998 31 31.998C31.367 31.998 31.72 31.796 31.896 31.445L32.896 29.445C33.144 28.952 32.943 28.352 32.449 28.104ZM7.00201 38.999C5.34801 38.999 4.00201 40.345 4.00201 41.999C4.00201 43.653 5.34801 44.999 7.00201 44.999C8.65601 44.999 10.002 43.653 10.002 41.999C10.002 40.345 8.65601 38.999 7.00201 38.999ZM7.00201 42.999C6.45001 42.999 6.00201 42.551 6.00201 41.999C6.00201 41.447 6.45001 40.999 7.00201 40.999C7.55401 40.999 8.00201 41.447 8.00201 41.999C8.00201 42.551 7.55401 42.999 7.00201 42.999ZM24.449 40.104C23.955 39.858 23.355 40.056 23.107 40.551L22.107 42.551C21.86 43.045 22.06 43.646 22.554 43.893C22.698 43.964 22.85 43.998 23 43.998C23.367 43.998 23.72 43.796 23.896 43.445L24.896 41.445C25.144 40.952 24.943 40.352 24.449 40.104ZM28.449 40.104C27.956 39.858 27.355 40.056 27.107 40.551L26.107 42.551C25.86 43.045 26.06 43.646 26.554 43.893C26.698 43.964 26.85 43.998 27 43.998C27.367 43.998 27.72 43.796 27.896 43.445L28.896 41.445C29.144 40.952 28.943 40.352 28.449 40.104ZM32.449 40.104C31.955 39.858 31.355 40.056 31.107 40.551L30.107 42.551C29.86 43.045 30.06 43.646 30.554 43.893C30.698 43.964 30.85 43.998 31 43.998C31.367 43.998 31.72 43.796 31.896 43.445L32.896 41.445C33.144 40.952 32.943 40.352 32.449 40.104ZM7.00201 56.999C8.65601 56.999 10.002 55.653 10.002 53.999C10.002 52.345 8.65601 50.999 7.00201 50.999C5.34801 50.999 4.00201 52.345 4.00201 53.999C4.00201 55.653 5.34801 56.999 7.00201 56.999ZM7.00201 52.999C7.55401 52.999 8.00201 53.447 8.00201 53.999C8.00201 54.551 7.55401 54.999 7.00201 54.999C6.45001 54.999 6.00201 54.551 6.00201 53.999C6.00201 53.447 6.45001 52.999 7.00201 52.999ZM22.555 55.894C22.699 55.965 22.851 55.999 23.001 55.999C23.368 55.999 23.721 55.797 23.897 55.446L24.897 53.446C25.144 52.952 24.944 52.351 24.45 52.104C23.956 51.859 23.356 52.057 23.108 52.551L22.108 54.551C21.86 55.046 22.061 55.646 22.555 55.894ZM26.555 55.894C26.699 55.965 26.851 55.999 27.001 55.999C27.368 55.999 27.721 55.797 27.897 55.446L28.897 53.446C29.144 52.952 28.944 52.351 28.45 52.104C27.957 51.859 27.356 52.057 27.108 52.551L26.108 54.551C25.86 55.046 26.061 55.646 26.555 55.894ZM30.555 55.894C30.699 55.965 30.851 55.999 31.001 55.999C31.368 55.999 31.721 55.797 31.897 55.446L32.897 53.446C33.144 52.952 32.944 52.351 32.45 52.104C31.956 51.859 31.356 52.057 31.108 52.551L30.108 54.551C29.86 55.046 30.061 55.646 30.555 55.894Z" fill="black"/>
<path d="M63.998 42.008V8.99798V6.00098C63.998 5.44798 63.551 5.00098 62.998 5.00098H34.072L32.772 3.37598C32.76 3.36098 32.742 3.35498 32.729 3.33998C32.684 3.28898 32.629 3.25098 32.575 3.21098C32.523 3.17298 32.476 3.13298 32.42 3.10598C32.367 3.08198 32.312 3.07098 32.255 3.05398C32.184 3.03398 32.115 3.01498 32.042 3.01198C32.024 3.00998 32.01 3.00098 31.991 3.00098H17.993C17.44 3.00098 16.993 3.44798 16.993 4.00098V8.99798V22.999H2.00201C0.899014 22.999 0.00201416 23.896 0.00201416 24.999V34.999C0.00201416 35.365 0.107014 35.703 0.280014 35.999C0.107014 36.295 0.00201416 36.633 0.00201416 36.999V46.999C0.00201416 47.365 0.107014 47.703 0.280014 47.999C0.107014 48.295 0.00201416 48.633 0.00201416 48.999V58.999C0.00201416 60.102 0.899014 60.999 2.00201 60.999H35.002C36.105 60.999 37.002 60.102 37.002 58.999V48.999C37.002 48.633 36.897 48.295 36.724 47.999C36.897 47.703 37.002 47.365 37.002 46.999V43.008H62.998C63.551 43.008 63.998 42.561 63.998 42.008ZM61.998 7.00098V7.99798H36.471L35.673 7.00098H61.998ZM2.00201 24.999H34.968C34.981 24.999 34.99 25.006 35.002 25.006L35 29.982C35 29.99 34.996 29.996 34.996 30.003C34.996 30.01 35 30.018 35 30.025L34.999 34.999H2.00201V24.999ZM2.00201 46.999V36.999H35.002V46.999H2.00201ZM35.002 58.999H2.00201V48.999H35.002V58.999ZM37.002 41.008V36.999C37.002 36.633 36.897 36.295 36.724 35.999C36.897 35.703 37.002 35.365 37.002 34.999V31.004H47.998C48.551 31.004 48.998 30.557 48.998 30.004C48.998 29.451 48.551 29.004 47.998 29.004H37.002V28.005H53.998C54.551 28.005 54.998 27.558 54.998 27.005C54.998 26.452 54.551 26.005 53.998 26.005H37.002V25.006H53.998C54.551 25.006 54.998 24.559 54.998 24.006C54.998 23.453 54.551 23.006 53.998 23.006H35.069C35.047 23.005 35.025 22.999 35.002 22.999H18.993V8.99798V5.00098H31.51L35.21 9.62298C35.221 9.63598 35.236 9.64098 35.248 9.65198C35.317 9.73198 35.401 9.79298 35.493 9.84598C35.524 9.86498 35.55 9.89198 35.583 9.90698C35.708 9.96398 35.844 9.99798 35.99 9.99798H61.998V41.008H37.002Z" fill="black"/>
<path d="M46.004 46C45.451 46 45.004 46.447 45.004 47V57.585L44.712 57.293C44.321 56.902 43.689 56.902 43.298 57.293C42.907 57.684 42.907 58.316 43.298 58.707L45.296 60.705C45.388 60.798 45.499 60.871 45.622 60.922C45.744 60.973 45.874 60.999 46.004 60.999C46.134 60.999 46.264 60.973 46.386 60.922C46.509 60.871 46.62 60.798 46.712 60.705L48.71 58.707C49.101 58.316 49.101 57.684 48.71 57.293C48.319 56.902 47.687 56.902 47.296 57.293L47.004 57.585V47C47.004 46.447 46.557 46 46.004 46ZM54.004 60.999C54.557 60.999 55.004 60.552 55.004 59.999V49.414L55.296 49.706C55.491 49.901 55.747 49.999 56.003 49.999C56.259 49.999 56.515 49.901 56.71 49.706C57.101 49.315 57.101 48.683 56.71 48.292L54.712 46.294C54.62 46.201 54.509 46.128 54.386 46.077C54.142 45.975 53.866 45.975 53.622 46.077C53.499 46.128 53.388 46.201 53.296 46.294L51.298 48.292C50.907 48.683 50.907 49.315 51.298 49.706C51.493 49.901 51.749 49.999 52.005 49.999C52.261 49.999 52.517 49.901 52.712 49.706L53.004 49.414V59.999C53.004 60.552 53.451 60.999 54.004 60.999Z" fill="black"/>
</svg>
