<svg width="84" height="84" viewBox="0 0 84 84" fill="none" xmlns="http://www.w3.org/2000/svg">
<path d="M42 37.5902C45.5645 37.5902 48.983 36.1742 51.5035 33.6537C54.024 31.1332 55.44 27.7147 55.44 24.1502V14.4482C55.4289 11.7821 54.362 9.22895 52.4728 7.34766C50.5836 5.46636 48.0261 4.41013 45.36 4.41016H38.64C35.9666 4.41016 33.4027 5.47215 31.5123 7.36252C29.622 9.25289 28.56 11.8168 28.56 14.4902V24.1502C28.56 27.7147 29.976 31.1332 32.4965 33.6537C35.0169 36.1742 38.4355 37.5902 42 37.5902ZM30.24 14.4482C30.2511 12.2276 31.141 10.1018 32.7151 8.53559C34.2892 6.96936 36.4194 6.09013 38.64 6.09016H45.444C47.6718 6.09016 49.8084 6.97515 51.3837 8.55046C52.959 10.1258 53.844 12.2623 53.844 14.4902V17.7242C53.004 17.7242 51.0552 16.0442 49.644 14.3642C49.5352 14.2363 49.3907 14.144 49.229 14.0991C49.0673 14.0542 48.8959 14.0587 48.7368 14.1122C44.772 15.389 34.2468 18.3794 30.24 17.405V14.4482ZM30.24 19.127C35.28 20.009 45.8892 16.7582 48.6612 15.8594C49.7364 17.0606 52.0212 19.3622 53.76 19.3622V24.1502C53.76 27.2691 52.521 30.2603 50.3155 32.4657C48.1101 34.6712 45.1189 35.9102 42 35.9102C38.881 35.9102 35.8898 34.6712 33.6844 32.4657C31.479 30.2603 30.24 27.2691 30.24 24.1502V19.127ZM15.75 79.5902H68.25C68.4728 79.5902 68.6864 79.5017 68.8439 79.3441C69.0015 79.1866 69.09 78.9729 69.09 78.7502V66.5534C69.0833 59.8178 66.4035 53.3603 61.6392 48.5991C56.8748 43.8379 50.4155 41.1624 43.68 41.1602H40.32C33.5844 41.1624 27.1251 43.8379 22.3608 48.5991C17.5964 53.3603 14.9167 59.8178 14.91 66.5534V78.7502C14.91 78.9729 14.9985 79.1866 15.156 79.3441C15.3135 79.5017 15.5272 79.5902 15.75 79.5902ZM53.9364 45.1502L49.9884 51.719L46.0656 42.9578C48.7983 43.2277 51.4623 43.9755 53.9364 45.167V45.1502ZM43.68 42.8402H44.1588L46.0992 47.183L44.2596 49.031H39.7236L37.884 47.183L39.8244 42.8402H43.68ZM40.1268 50.7194H43.8396L45.5196 70.199L42 74.7602L38.4552 70.199L40.1268 50.7194ZM37.9176 42.9578L34.0116 51.7358L30.0636 45.167C32.5376 43.9755 35.2017 43.2277 37.9344 42.9578H37.9176ZM16.59 66.5534C16.5916 62.3696 17.6998 58.2607 19.802 54.6434C21.9042 51.0261 24.9257 48.0292 28.56 45.9566L33.39 53.987C33.4654 54.1108 33.5715 54.213 33.6981 54.2837C33.8247 54.3543 33.9674 54.391 34.1124 54.3902H34.1628C34.3157 54.3805 34.463 54.3292 34.5889 54.2419C34.7147 54.1545 34.8143 54.0344 34.8768 53.8946L37.128 48.8546L38.4888 50.207L36.7332 70.367C36.7157 70.5782 36.7787 70.7882 36.9096 70.955L41.3196 76.625C41.3981 76.7261 41.4987 76.808 41.6137 76.8643C41.7287 76.9207 41.8551 76.9499 41.9832 76.9499C42.1112 76.9499 42.2376 76.9207 42.3526 76.8643C42.4676 76.808 42.5683 76.7261 42.6468 76.625L47.04 70.9718C47.1709 70.805 47.2339 70.595 47.2164 70.3838L45.4608 50.2238L46.8216 48.8714L49.0728 53.9114C49.1353 54.0512 49.2348 54.1713 49.3607 54.2587C49.4865 54.346 49.6339 54.3973 49.7868 54.407H49.8456C49.9891 54.4064 50.1301 54.369 50.2551 54.2984C50.3801 54.2278 50.4849 54.1264 50.5596 54.0038L55.44 45.9566C59.0743 48.0292 62.0958 51.0261 64.198 54.6434C66.3002 58.2607 67.4083 62.3696 67.41 66.5534V77.9102H61.2192V68.2502H59.5392V77.9102H24.4692V68.2502H22.7892V77.9102H16.59V66.5534Z" fill="black"/>
<path d="M53.1132 71.7194H54.516C55.5972 71.7171 56.6335 71.286 57.3972 70.5207C58.161 69.7553 58.59 68.7182 58.59 67.637V63.0002C58.59 62.7774 58.5015 62.5637 58.344 62.4062C58.1864 62.2487 57.9728 62.1602 57.75 62.1602H49.8792C49.6564 62.1602 49.4427 62.2487 49.2852 62.4062C49.1277 62.5637 49.0392 62.7774 49.0392 63.0002V67.637C49.0392 68.7182 49.4681 69.7553 50.2319 70.5207C50.9957 71.286 52.0319 71.7171 53.1132 71.7194ZM50.7192 63.8402H56.91V67.637C56.91 68.2727 56.658 68.8824 56.2093 69.3327C55.7606 69.783 55.1517 70.0371 54.516 70.0394H53.1132C52.4775 70.0371 51.8686 69.783 51.4199 69.3327C50.9711 68.8824 50.7192 68.2727 50.7192 67.637V63.8402Z" fill="black"/>
</svg>
