<svg width="14" height="16" viewBox="0 0 14 16" fill="none" xmlns="http://www.w3.org/2000/svg">
<path d="M13.3536 12.3536C13.5488 12.1583 13.5488 11.8417 13.3536 11.6464L10.1716 8.46447C9.97631 8.2692 9.65973 8.2692 9.46447 8.46447C9.2692 8.65973 9.2692 8.97631 9.46447 9.17157L12.2929 12L9.46447 14.8284C9.2692 15.0237 9.2692 15.3403 9.46447 15.5355C9.65973 15.7308 9.97631 15.7308 10.1716 15.5355L13.3536 12.3536ZM0.5 0V10H1.5V0H0.5ZM3 12.5H13V11.5H3V12.5ZM0.5 10C0.5 11.3807 1.61929 12.5 3 12.5V11.5C2.17157 11.5 1.5 10.8284 1.5 10H0.5Z" fill="black"/>
</svg>
