<svg width="64" height="64" viewBox="0 0 64 64" fill="none" xmlns="http://www.w3.org/2000/svg">
<path d="M57 22V10C57.8711 9.75745 58.6377 9.23368 59.1803 8.51023C59.7229 7.78678 60.011 6.90424 60 6C60 4.93913 59.5785 3.92172 58.8284 3.17157C58.0782 2.42143 57.0608 2 56 2C54.9391 2 53.9217 2.42143 53.1715 3.17157C52.4214 3.92172 52 4.93913 52 6C52.0107 6.88713 52.309 7.74683 52.8499 8.45005C53.3908 9.15326 54.1453 9.66204 55 9.9V22H53C53 20.1435 52.2625 18.363 50.9497 17.0503C49.6369 15.7375 47.8565 15 46 15H18C16.1434 15 14.363 15.7375 13.0502 17.0503C11.7375 18.363 11 20.1435 11 22H8.99996V10C9.87113 9.75745 10.6377 9.23368 11.1803 8.51023C11.7229 7.78678 12.011 6.90424 12 6C12 4.93913 11.5785 3.92172 10.8284 3.17157C10.0782 2.42143 9.06082 2 7.99996 2C6.93909 2 5.92167 2.42143 5.17153 3.17157C4.42138 3.92172 3.99996 4.93913 3.99996 6C4.01073 6.88713 4.30896 7.74683 4.8499 8.45005C5.39083 9.15326 6.14527 9.66204 6.99996 9.9V22C6.60223 21.986 6.20588 22.0541 5.83558 22.1999C5.46529 22.3457 5.12897 22.5662 4.84756 22.8476C4.56615 23.129 4.34567 23.4653 4.19985 23.8356C4.05403 24.2059 3.98599 24.6023 3.99996 25V39C3.98599 39.3977 4.05403 39.7941 4.19985 40.1644C4.34567 40.5347 4.56615 40.871 4.84756 41.1524C5.12897 41.4338 5.46529 41.6543 5.83558 41.8001C6.20588 41.9459 6.60223 42.014 6.99996 42H11C11 43.8565 11.7375 45.637 13.0502 46.9497C14.363 48.2625 16.1434 49 18 49H46C47.8565 49 49.6369 48.2625 50.9497 46.9497C52.2625 45.637 53 43.8565 53 42H55V50C55 53.3 51.8 56 47.9 56H41.9C41.6694 54.8706 41.0558 53.8556 40.1629 53.1267C39.2699 52.3978 38.1526 51.9998 37 52H33C31.6739 52 30.4021 52.5268 29.4644 53.4645C28.5267 54.4021 28 55.6739 28 57C28 58.3261 28.5267 59.5979 29.4644 60.5355C30.4021 61.4732 31.6739 62 33 62H37C38.1526 62.0002 39.2699 61.6022 40.1629 60.8733C41.0558 60.1444 41.6694 59.1294 41.9 58H47.9C52.9 58 57 54.4 57 50V42C57.3977 42.014 57.794 41.9459 58.1643 41.8001C58.5346 41.6543 58.8709 41.4338 59.1524 41.1524C59.4338 40.871 59.6542 40.5347 59.8001 40.1644C59.9459 39.7941 60.0139 39.3977 60 39V25C60.0139 24.6023 59.9459 24.2059 59.8001 23.8356C59.6542 23.4653 59.4338 23.129 59.1524 22.8476C58.8709 22.5662 58.5346 22.3457 58.1643 22.1999C57.794 22.0541 57.3977 21.986 57 22ZM6.99996 40C6.86476 40.0161 6.72768 40.0013 6.59903 39.9567C6.47039 39.9121 6.35353 39.839 6.25726 39.7427C6.16099 39.6464 6.08781 39.5296 6.04325 39.4009C5.99868 39.2723 5.98388 39.1352 5.99996 39V25C5.98388 24.8648 5.99868 24.7277 6.04325 24.5991C6.08781 24.4704 6.16099 24.3536 6.25726 24.2573C6.35353 24.161 6.47039 24.0879 6.59903 24.0433C6.72768 23.9987 6.86476 23.9839 6.99996 24H11V40H6.99996ZM47.9 39C47.9 40.0609 47.4785 41.0783 46.7284 41.8284C45.9782 42.5786 44.9608 43 43.9 43H20.1C19.0391 43 18.0217 42.5786 17.2715 41.8284C16.5214 41.0783 16.1 40.0609 16.1 39V24C16.1 22.9391 16.5214 21.9217 17.2715 21.1716C18.0217 20.4214 19.0391 20 20.1 20H25.9C26.3913 19.9954 26.8762 20.1115 27.3121 20.3382C27.748 20.5649 28.1216 20.8952 28.4 21.3L29.2 22.6C29.4359 22.8462 29.7591 22.9899 30.1 23H33.9C34.2408 22.9899 34.564 22.8462 34.8 22.6L35.6 21.3C35.8783 20.8952 36.2519 20.5649 36.6878 20.3382C37.1237 20.1115 37.6087 19.9954 38.1 20H43.9C44.9608 20 45.9782 20.4214 46.7284 21.1716C47.4785 21.9217 47.9 22.9391 47.9 24V39ZM58 39C58.016 39.1352 58.0012 39.2723 57.9567 39.4009C57.9121 39.5296 57.8389 39.6464 57.7426 39.7427C57.6464 39.839 57.5295 39.9121 57.4009 39.9567C57.2722 40.0013 57.1351 40.0161 57 40H53V24H57C57.1351 23.9839 57.2722 23.9987 57.4009 24.0433C57.5295 24.0879 57.6464 24.161 57.7426 24.2573C57.8389 24.3536 57.9121 24.4704 57.9567 24.5991C58.0012 24.7277 58.016 24.8648 58 25V39Z" fill="black"/>
<path d="M39 38C41.7614 38 44 35.7614 44 33C44 30.2386 41.7614 28 39 28C36.2386 28 34 30.2386 34 33C34 35.7614 36.2386 38 39 38Z" fill="black"/>
<path d="M25 38C27.7614 38 30 35.7614 30 33C30 30.2386 27.7614 28 25 28C22.2386 28 20 30.2386 20 33C20 35.7614 22.2386 38 25 38Z" fill="black"/>
</svg>
