<svg width="22" height="22" viewBox="0 0 22 22" fill="none" xmlns="http://www.w3.org/2000/svg">
<g clip-path="url(#clip0_2417_5136)">
<path d="M16.4995 6.4625C16.4995 6.21939 16.4029 5.98623 16.231 5.81432C16.0591 5.64241 15.8259 5.54583 15.5828 5.54583L8.24946 5.5C8.00634 5.5 7.77318 5.59658 7.60127 5.76849C7.42937 5.94039 7.33279 6.17355 7.33279 6.41667C7.33279 6.65978 7.42937 6.89294 7.60127 7.06485C7.77318 7.23676 8.00634 7.33333 8.24946 7.33333H13.3461L5.76529 14.9325C5.67937 15.0177 5.61118 15.1191 5.56464 15.2308C5.5181 15.3425 5.49414 15.4623 5.49414 15.5833C5.49414 15.7043 5.5181 15.8242 5.56464 15.9359C5.61118 16.0476 5.67937 16.149 5.76529 16.2342C5.85051 16.3201 5.95189 16.3883 6.06359 16.4348C6.1753 16.4814 6.29511 16.5053 6.41612 16.5053C6.53713 16.5053 6.65695 16.4814 6.76865 16.4348C6.88036 16.3883 6.98174 16.3201 7.06696 16.2342L14.6661 8.635V13.75C14.6661 13.9931 14.7627 14.2263 14.9346 14.3982C15.1065 14.5701 15.3397 14.6667 15.5828 14.6667C15.8259 14.6667 16.0591 14.5701 16.231 14.3982C16.4029 14.2263 16.4995 13.9931 16.4995 13.75V6.4625Z" fill="white"/>
</g>
<defs>
<clipPath id="clip0_2417_5136">
<rect width="22" height="22" fill="white"/>
</clipPath>
</defs>
</svg>
