<svg width="25" height="24" viewBox="0 0 25 24" fill="none" xmlns="http://www.w3.org/2000/svg">
<path d="M15.5002 12.0001C15.5009 12.1317 15.4757 12.2621 15.426 12.384C15.3762 12.5058 15.3029 12.6166 15.2102 12.7101L11.2102 16.7101C11.0219 16.8984 10.7665 17.0042 10.5002 17.0042C10.2339 17.0042 9.97849 16.8984 9.79018 16.7101C9.60188 16.5218 9.49609 16.2664 9.49609 16.0001C9.49609 15.7338 9.60188 15.4784 9.79018 15.2901L13.0902 12.0001L9.80018 8.71006C9.63636 8.51876 9.55075 8.27268 9.56047 8.02101C9.57019 7.76933 9.67453 7.53059 9.85262 7.3525C10.0307 7.1744 10.2695 7.07007 10.5211 7.06035C10.7728 7.05063 11.0189 7.13623 11.2102 7.30006L15.2102 11.3001C15.3949 11.4863 15.4991 11.7377 15.5002 12.0001Z" fill="#424241"/>
</svg>
