<svg width="136" height="5" viewBox="0 0 136 5" fill="none" xmlns="http://www.w3.org/2000/svg">
<path d="M32.4296 4.99951C31.1626 5.01455 29.9146 4.68625 28.8123 4.04863C28.308 3.73299 27.8228 3.38686 27.3585 3.01258C27.1427 2.84228 26.9203 2.67198 26.6629 2.50882C26.1625 2.08229 25.5309 1.84823 24.8789 1.84823C24.2263 1.84823 23.5952 2.08189 23.0944 2.50842C22.872 2.67159 22.6632 2.84188 22.4473 3.01218C22.0995 3.28901 21.7517 3.56583 21.3689 3.82128C20.1648 4.58761 18.7748 4.99429 17.3555 4.99429C15.9363 4.99429 14.546 4.58796 13.3418 3.82168C12.966 3.56624 12.6461 3.29653 12.2774 3.0197C12.048 2.83515 11.8112 2.6506 11.5818 2.47318C11.0934 2.08586 10.4929 1.87557 9.87411 1.87557C9.25574 1.87557 8.6548 2.08586 8.16648 2.47318C7.90213 2.65773 7.65874 2.85654 7.40837 3.05496C7.158 3.25376 6.71276 3.60148 6.34399 3.85693C4.43761 5.03908 2.12102 5.31393 0 4.6094L0.549654 2.87085C2.17769 3.40985 3.95439 3.19995 5.41855 2.29581C5.75239 2.07561 6.05167 1.8273 6.35755 1.58611C6.66343 1.34493 6.9072 1.14612 7.19912 0.940181C7.99061 0.340581 8.95096 0.0166257 9.93695 0.0166257C10.9225 0.0166257 11.8825 0.340581 12.674 0.940181C12.9383 1.13186 13.1957 1.3378 13.4461 1.53621C13.6964 1.73502 14.0582 2.02571 14.392 2.2459C15.3039 2.8158 16.3524 3.11719 17.4213 3.11719C18.4908 3.11719 19.5392 2.8158 20.451 2.2459C20.7919 2.01897 21.0981 1.77027 21.404 1.53621C21.7099 1.30215 21.8632 1.16711 22.0996 0.989686C22.9078 0.347718 23.903 0 24.9271 0C25.9515 0 26.9463 0.348114 27.7549 0.990082C27.9983 1.16751 28.2281 1.35206 28.4506 1.52948C28.8589 1.86255 29.2863 2.17026 29.7304 2.45185C31.2318 3.28946 33.0276 3.37619 34.5997 2.6859C35.2957 2.32274 35.9552 1.88987 36.5682 1.39446L37.0968 0.996844C37.9101 0.357249 38.9081 0.00992406 39.9352 0.00992406C40.9619 0.00992406 41.9599 0.357249 42.7732 0.996844L43.4688 1.51486C43.8515 1.8202 44.2199 2.10376 44.6166 2.36633C45.4473 2.89623 46.4212 3.14493 47.3991 3.07642L47.4616 4.90013C46.1204 4.97458 44.7905 4.61974 43.6567 3.88547C43.1975 3.58013 42.7802 3.25379 42.3838 2.94172L41.7507 2.45222C41.2406 2.04352 40.611 1.82094 39.9628 1.82094C39.3145 1.82094 38.6849 2.04311 38.1752 2.45183L37.6605 2.83518C36.9548 3.4031 36.1951 3.8977 35.3928 4.31124C34.4666 4.76074 33.4548 4.99594 32.4296 4.99951Z" fill="#EBE1C6"/>
<path d="M76.6989 4.99951C75.4318 5.01455 74.1838 4.68625 73.0815 4.04863C72.5772 3.73299 72.092 3.38686 71.6277 3.01258C71.4119 2.84228 71.1895 2.67198 70.9321 2.50882C70.4318 2.08229 69.8002 1.84823 69.1481 1.84823C68.4956 1.84823 67.8644 2.08189 67.3636 2.50842C67.1412 2.67159 66.9324 2.84188 66.7165 3.01218C66.3687 3.28901 66.0209 3.56583 65.6381 3.82128C64.434 4.58761 63.044 4.99429 61.6248 4.99429C60.2055 4.99429 58.8152 4.58796 57.611 3.82168C57.2352 3.56624 56.9154 3.29653 56.5466 3.0197C56.3172 2.83515 56.0804 2.6506 55.851 2.47318C55.3626 2.08586 54.7621 1.87557 54.1433 1.87557C53.525 1.87557 52.924 2.08586 52.4357 2.47318C52.1713 2.65773 51.928 2.85654 51.6776 3.05496C51.4272 3.25376 50.982 3.60148 50.6132 3.85693C48.7068 5.03908 46.4113 5.46355 44.2692 4.0066L44.6262 2.47318C46.4113 3.27813 48.2236 3.19995 49.6878 2.29581C50.0216 2.07561 50.3209 1.8273 50.6268 1.58611C50.9326 1.34493 51.1764 1.14612 51.4683 0.940181C52.2598 0.340581 53.2202 0.0166257 54.2062 0.0166257C55.1917 0.0166257 56.1517 0.340581 56.9432 0.940181C57.2076 1.13186 57.4649 1.3378 57.7153 1.53621C57.9657 1.73502 58.3274 2.02571 58.6613 2.2459C59.5731 2.8158 60.6216 3.11719 61.6906 3.11719C62.76 3.11719 63.8084 2.8158 64.7203 2.2459C65.0611 2.01897 65.3673 1.77027 65.6732 1.53621C65.9791 1.30215 66.1324 1.16711 66.3688 0.989686C67.177 0.347718 68.1723 0 69.1963 0C70.2207 0 71.2156 0.348114 72.0242 0.990082C72.2675 1.16751 72.4973 1.35206 72.7198 1.52948C73.1281 1.86255 73.5555 2.17026 73.9996 2.45185C75.501 3.28946 77.2968 3.37619 78.8689 2.6859C79.5649 2.32274 80.2244 1.88987 80.8374 1.39446L81.3661 0.996844C82.1793 0.357249 83.1773 0.00992406 84.2044 0.00992406C85.2311 0.00992406 86.2291 0.357249 87.0424 0.996844L87.738 1.51486C88.1207 1.8202 88.4891 2.10376 88.8858 2.36633C89.7165 2.89623 90.6905 3.14493 91.6683 3.07642L91.7308 4.90013C90.3896 4.97458 89.0597 4.61974 87.9259 3.88547C87.4667 3.58013 87.0494 3.25379 86.653 2.94172L86.0199 2.45222C85.5098 2.04352 84.8802 1.82094 84.232 1.82094C83.5837 1.82094 82.9541 2.04311 82.4444 2.45183L81.9297 2.83518C81.224 3.4031 80.4644 3.8977 79.662 4.31124C78.7358 4.76074 77.724 4.99594 76.6989 4.99951Z" fill="#EBE1C6"/>
<path d="M120.968 4.99951C119.701 5.01455 118.453 4.68625 117.351 4.04863C116.846 3.73299 116.361 3.38686 115.897 3.01258C115.681 2.84228 115.459 2.67198 115.201 2.50882C114.701 2.08229 114.069 1.84823 113.417 1.84823C112.765 1.84823 112.134 2.08189 111.633 2.50842C111.41 2.67159 111.202 2.84188 110.986 3.01218C110.638 3.28901 110.29 3.56583 109.907 3.82128C108.703 4.58761 107.313 4.99429 105.894 4.99429C104.475 4.99429 103.084 4.58796 101.88 3.82168C101.504 3.56624 101.185 3.29653 100.816 3.0197C100.586 2.83515 100.35 2.6506 100.12 2.47318C99.6319 2.08586 99.0313 1.87557 98.4125 1.87557C97.7942 1.87557 97.1932 2.08586 96.7049 2.47318C96.4406 2.65773 96.1972 2.85654 95.9468 3.05496C95.6964 3.25376 95.2512 3.60148 94.8824 3.85693C92.976 5.03908 90.6805 5.46355 88.5384 4.0066L88.8954 2.47318C90.6805 3.27813 92.4928 3.19995 93.957 2.29581C94.2908 2.07561 94.5901 1.8273 94.896 1.58611C95.2019 1.34493 95.4456 1.14612 95.7376 0.940181C96.529 0.340581 97.4894 0.0166257 98.4754 0.0166257C99.461 0.0166257 100.421 0.340581 101.212 0.940181C101.477 1.13186 101.734 1.3378 101.984 1.53621C102.235 1.73502 102.597 2.02571 102.93 2.2459C103.842 2.8158 104.891 3.11719 105.96 3.11719C107.029 3.11719 108.078 2.8158 108.989 2.2459C109.33 2.01897 109.637 1.77027 109.942 1.53621C110.248 1.30215 110.402 1.16711 110.638 0.989686C111.446 0.347718 112.441 0 113.466 0C114.49 0 115.485 0.348114 116.293 0.990082C116.537 1.16751 116.767 1.35206 116.989 1.52948C117.397 1.86255 117.825 2.17026 118.269 2.45185C119.77 3.28946 121.566 3.37619 123.138 2.6859C123.834 2.32274 124.494 1.88987 125.107 1.39446L125.635 0.996844C126.449 0.357249 127.447 0.00992406 128.474 0.00992406C129.5 0.00992406 130.498 0.357249 131.312 0.996844L132.007 1.51486C132.39 1.8202 132.758 2.10376 133.155 2.36633C133.986 2.89623 134.96 3.14493 135.938 3.07642L136 4.90013C134.659 4.97458 133.329 4.61974 132.195 3.88547C131.736 3.58013 131.319 3.25379 130.922 2.94172L130.289 2.45222C129.779 2.04352 129.149 1.82094 128.501 1.82094C127.853 1.82094 127.223 2.04311 126.714 2.45183L126.199 2.83518C125.493 3.4031 124.734 3.8977 123.931 4.31124C123.005 4.76074 121.993 4.99594 120.968 4.99951Z" fill="#EBE1C6"/>
</svg>
